<svg width="132" height="145" viewBox="0 0 132 145" fill="none" xmlns="http://www.w3.org/2000/svg">
<path d="M132 79.0357C132 115.467 102.467 145 66.0357 145C29.6047 145 0.0715332 115.467 0.0715332 79.0357C0.0715332 42.6047 29.6047 13.0715 66.0357 13.0715C102.467 13.0715 132 42.6047 132 79.0357ZM18.8148 79.0357C18.8148 105.115 39.9563 126.257 66.0357 126.257C92.1151 126.257 113.257 105.115 113.257 79.0357C113.257 52.9563 92.1151 31.8148 66.0357 31.8148C39.9563 31.8148 18.8148 52.9563 18.8148 79.0357Z" fill="#FFB992"/>
<path d="M110.641 43.6157C114.536 40.5281 115.229 34.8138 111.641 31.3746C106.476 26.4253 100.526 22.3348 94.0136 19.28C87.5013 16.2252 80.552 14.2647 73.4444 13.4574C68.5056 12.8964 64.5544 17.0823 64.6704 22.0515L64.6877 22.7945C64.8037 27.7637 68.9598 31.6107 73.861 32.4382C78.0655 33.148 82.1682 34.4264 86.0536 36.249C89.939 38.0716 93.5449 40.4092 96.7787 43.1885C100.548 46.4284 106.163 47.1649 110.059 44.0774L110.641 43.6157Z" fill="#EB5A09"/>
</svg>
