<svg width="19" height="21" viewBox="0 0 19 21" fill="none" xmlns="http://www.w3.org/2000/svg">
<path d="M9.48049 0.90918C11.7538 0.90918 13.9339 1.81224 15.5414 3.41969C17.1489 5.02715 18.0519 7.20732 18.0519 9.48061C18.0519 13.0292 15.3472 16.7473 10.0519 20.7187C9.88706 20.8423 9.68655 20.9092 9.48049 20.9092C9.27442 20.9092 9.07391 20.8423 8.90906 20.7187C3.61382 16.7473 0.909058 13.0292 0.909058 9.48061C0.909058 7.20732 1.81212 5.02715 3.41957 3.41969C5.02703 1.81224 7.2072 0.90918 9.48049 0.90918ZM9.48049 2.81394C7.71238 2.81394 6.01668 3.51632 4.76644 4.76656C3.5162 6.01681 2.81382 7.7125 2.81382 9.48061C2.81382 12.0616 4.83096 15.0387 8.95477 18.3435L9.48049 18.7587L10.0062 18.3435C14.13 15.0387 16.1472 12.0616 16.1472 9.48061C16.1472 7.7125 15.4448 6.01681 14.1945 4.76656C12.9443 3.51632 11.2486 2.81394 9.48049 2.81394ZM9.48049 7.57585C9.98566 7.57585 10.4701 7.77653 10.8274 8.13374C11.1846 8.49095 11.3852 8.97543 11.3852 9.48061C11.3852 9.98578 11.1846 10.4703 10.8274 10.8275C10.4701 11.1847 9.98566 11.3854 9.48049 11.3854C8.97531 11.3854 8.49083 11.1847 8.13362 10.8275C7.7764 10.4703 7.57572 9.98578 7.57572 9.48061C7.57572 8.97543 7.7764 8.49095 8.13362 8.13374C8.49083 7.77653 8.97531 7.57585 9.48049 7.57585Z" fill="#83D983"/>
</svg>
