<svg width="32" height="30" viewBox="0 0 32 30" fill="none" xmlns="http://www.w3.org/2000/svg">
<path d="M20.4786 29.8C20.7533 29.8 21.0167 29.6909 21.211 29.4967C21.4052 29.3025 21.5143 29.039 21.5143 28.7643C21.5143 28.4896 21.4052 28.2262 21.211 28.032C21.0167 27.8377 20.7533 27.7286 20.4786 27.7286H7.01433C5.91558 27.7286 4.86183 27.2921 4.08489 26.5152C3.30796 25.7383 2.87148 24.6845 2.87148 23.5858V7.01433C2.87148 5.91558 3.30796 4.86183 4.08489 4.08489C4.86183 3.30796 5.91558 2.87148 7.01433 2.87148H20.4786C20.7533 2.87148 21.0167 2.76236 21.211 2.56812C21.4052 2.37389 21.5143 2.11045 21.5143 1.83576C21.5143 1.56107 21.4052 1.29764 21.211 1.1034C21.0167 0.909169 20.7533 0.800049 20.4786 0.800049H7.01433C5.3662 0.800049 3.78558 1.45477 2.62017 2.62017C1.45477 3.78558 0.800049 5.3662 0.800049 7.01433V23.5858C0.800049 25.2339 1.45477 26.8145 2.62017 27.9799C3.78558 29.1453 5.3662 29.8 7.01433 29.8H20.4786ZM22.8525 7.31676C22.9487 7.22031 23.063 7.14379 23.1888 7.09157C23.3146 7.03936 23.4495 7.01248 23.5858 7.01248C23.722 7.01248 23.8569 7.03936 23.9827 7.09157C24.1085 7.14379 24.2228 7.22031 24.319 7.31676L31.569 14.5668C31.6655 14.663 31.742 14.7773 31.7942 14.9031C31.8464 15.0289 31.8733 15.1638 31.8733 15.3C31.8733 15.4363 31.8464 15.5712 31.7942 15.697C31.742 15.8228 31.6655 15.9371 31.569 16.0333L24.319 23.2833C24.2227 23.3796 24.1084 23.456 23.9826 23.5081C23.8568 23.5602 23.7219 23.5871 23.5858 23.5871C23.4496 23.5871 23.3147 23.5602 23.1889 23.5081C23.0631 23.456 22.9488 23.3796 22.8525 23.2833C22.7562 23.187 22.6798 23.0727 22.6277 22.9469C22.5756 22.8211 22.5487 22.6862 22.5487 22.55C22.5487 22.4139 22.5756 22.279 22.6277 22.1532C22.6798 22.0274 22.7562 21.9131 22.8525 21.8168L28.3355 16.3358H10.1215C9.84679 16.3358 9.58335 16.2266 9.38912 16.0324C9.19488 15.8382 9.08576 15.5747 9.08576 15.3C9.08576 15.0254 9.19488 14.7619 9.38912 14.5677C9.58335 14.3735 9.84679 14.2643 10.1215 14.2643H28.3355L22.8525 8.78333C22.756 8.68713 22.6795 8.57283 22.6273 8.447C22.5751 8.32118 22.5482 8.18628 22.5482 8.05005C22.5482 7.91382 22.5751 7.77892 22.6273 7.65309C22.6795 7.52726 22.756 7.41297 22.8525 7.31676Z" fill="#005300"/>
</svg>
