<svg width="19" height="20" viewBox="0 0 19 20" fill="none" xmlns="http://www.w3.org/2000/svg">
<path d="M19 14.2876C18.9996 15.5901 18.5555 16.8533 17.7413 17.8682C16.9271 18.8831 15.7915 19.5889 14.5227 19.8686L13.9165 18.0457C14.4716 17.9541 14.9994 17.7401 15.462 17.4193C15.9246 17.0985 16.3105 16.6788 16.5917 16.1905H14.25C13.7461 16.1905 13.2628 15.9898 12.9065 15.6326C12.5502 15.2754 12.35 14.7909 12.35 14.2857V10.4762C12.35 9.97102 12.5502 9.48653 12.9065 9.12932C13.2628 8.77211 13.7461 8.57143 14.25 8.57143H17.0411C16.8093 6.73038 15.9153 5.0374 14.5269 3.81017C13.1384 2.58293 11.351 1.90579 9.5 1.90579C7.64898 1.90579 5.86156 2.58293 4.47314 3.81017C3.08473 5.0374 2.19073 6.73038 1.9589 8.57143H4.75C5.25391 8.57143 5.73718 8.77211 6.0935 9.12932C6.44982 9.48653 6.65 9.97102 6.65 10.4762V14.2857C6.65 14.7909 6.44982 15.2754 6.0935 15.6326C5.73718 15.9898 5.25391 16.1905 4.75 16.1905H1.9C1.39609 16.1905 0.912816 15.9898 0.556497 15.6326C0.200178 15.2754 0 14.7909 0 14.2857V9.52381C0 4.26381 4.25315 0 9.5 0C14.7469 0 19 4.26381 19 9.52381V14.2876ZM17.1 14.2857V10.4762H14.25V14.2857H17.1ZM1.9 10.4762V14.2857H4.75V10.4762H1.9Z" fill="#83D983"/>
</svg>
