<svg width="554" height="305" viewBox="0 0 554 305" fill="none" xmlns="http://www.w3.org/2000/svg">
<g clip-path="url(#clip0_216_1816)">
<path d="M419.702 67.3223C419.746 65.9489 419.519 64.5804 419.033 63.2951C418.548 62.0098 417.814 60.8328 416.873 59.8317C415.932 58.8306 414.804 58.0249 413.551 57.4608C412.299 56.8967 410.948 56.5852 409.575 56.5442L380.741 55.6827L356.294 35.2586C356.193 34.1761 355.791 33.1436 355.133 32.2785C354.475 31.4134 353.588 30.7504 352.572 30.3652C351.555 29.9799 350.452 29.8877 349.386 30.0992C348.32 30.3106 347.335 30.8172 346.543 31.5612C345.75 32.3053 345.183 33.2569 344.905 34.3078C344.626 35.3587 344.648 36.4666 344.968 37.5055C345.288 38.5445 345.894 39.4726 346.715 40.1844C347.536 40.8962 348.541 41.363 349.614 41.5317L375.24 70.7421L407.187 77.2292C408.676 77.5316 410.213 77.5052 411.691 77.1518C413.169 76.7985 414.552 76.1267 415.743 75.1834C416.935 74.2401 417.907 73.048 418.59 71.6903C419.274 70.3325 419.654 68.8418 419.702 67.3223Z" fill="#FBC4AE"/>
<path d="M380.537 74.5494L384.312 54.9947L384.435 54.899C385.237 54.2743 386.208 53.9056 387.222 53.8412C388.236 53.7768 389.246 54.0196 390.121 54.5379L390.34 54.6666L415.798 55.3527L418.779 57.1073L420.499 56.6873C425.698 55.4176 430.952 54.5568 434.157 56.8335C435.968 58.1193 436.994 60.2602 437.296 63.3751C437.512 65.6117 437.224 67.8685 436.451 69.9784C435.678 72.0883 434.441 73.9974 432.832 75.5644C431.222 77.1314 429.281 78.3162 427.151 79.0311C425.022 79.7461 422.76 79.9728 420.531 79.6947L419.251 79.5209L415.057 77.8263L408.572 78.5967L404.691 77.0014L380.537 74.5494Z" fill="#EB5A09"/>
<path d="M281.949 290.739C282.035 294.799 281.474 298.848 280.29 302.732C280.248 302.873 280.199 303.015 280.149 303.156H255.726C256.075 301.435 256.629 299.764 257.377 298.176C259.409 293.859 262.728 290.166 266.005 286.497C270.517 281.442 274.922 276.429 275.619 269.855C277.408 272.584 278.836 275.533 279.867 278.629C278.605 279.096 277.446 279.807 276.457 280.72C276.183 280.978 275.893 281.351 276.034 281.708C276.167 282.007 276.532 282.106 276.855 282.173C277.635 282.322 278.415 282.472 279.195 282.613C279.809 282.737 280.431 282.853 281.053 282.97C281.6 285.525 281.9 288.126 281.949 290.739Z" fill="#E6E6E6"/>
<path d="M302.465 288.049C298.549 290.432 296.06 294.117 294.028 298.242C292.259 298.645 290.626 299.504 289.291 300.732C289.009 300.989 288.719 301.363 288.868 301.72C288.992 302.019 289.366 302.118 289.689 302.185C290.461 302.334 291.249 302.483 292.02 302.625C291.946 302.799 291.871 302.981 291.796 303.156H265.914C267.089 301.57 268.39 300.082 269.804 298.707C270.111 298.4 270.426 298.109 270.75 297.81C274.049 294.827 277.838 292.435 281.949 290.739C288.426 288.03 295.509 287.101 302.465 288.049Z" fill="#E6E6E6"/>
<path d="M270.227 303.156H247.181C247.056 301.309 247.067 299.456 247.215 297.611C247.714 291.901 249.444 286.367 252.287 281.39C255.13 276.414 259.017 272.113 263.682 268.785C262.487 273.043 263.101 277.276 264.345 281.525C264.171 281.584 263.997 281.633 263.839 281.7C262.577 282.168 261.419 282.878 260.43 283.791C260.156 284.049 259.866 284.422 260.007 284.779C260.131 285.078 260.504 285.177 260.828 285.244C261.608 285.393 262.388 285.543 263.159 285.684C263.781 285.808 264.403 285.925 265.026 286.049C265.316 286.099 265.606 286.157 265.897 286.215C265.938 286.315 265.963 286.406 266.005 286.497C267.465 290.523 269.057 294.582 269.804 298.707C269.989 299.742 270.116 300.787 270.186 301.836C270.21 302.276 270.227 302.716 270.227 303.156Z" fill="#E6E6E6"/>
<path d="M170.188 267.28C170.435 279.012 168.817 290.708 165.394 301.932C165.274 302.34 165.131 302.748 164.987 303.155H94.4238C95.4325 298.185 97.0339 293.355 99.1937 288.767C105.066 276.296 114.653 265.625 124.121 255.025C137.16 240.421 149.887 225.936 151.9 206.943C157.069 214.826 161.194 223.347 164.172 232.291C160.525 233.643 157.179 235.696 154.321 238.334C153.53 239.078 152.691 240.157 153.099 241.188C153.482 242.051 154.537 242.339 155.471 242.531C157.725 242.963 159.978 243.394 162.231 243.802C164.004 244.162 165.802 244.497 167.6 244.833C169.18 252.215 170.046 259.732 170.188 267.28Z" fill="#E6E6E6"/>
<path d="M229.462 259.51C218.149 266.392 210.958 277.04 205.086 288.958C199.976 290.124 195.258 292.604 191.4 296.153C190.585 296.896 189.746 297.975 190.178 299.007C190.537 299.87 191.616 300.158 192.55 300.35C194.779 300.781 197.056 301.213 199.285 301.621C199.07 302.124 198.854 302.652 198.638 303.155H123.857C127.252 298.575 131.011 294.276 135.098 290.302C135.985 289.414 136.896 288.575 137.831 287.712C147.363 279.092 158.309 272.18 170.188 267.28C188.901 259.452 209.365 256.77 229.462 259.51Z" fill="#E6E6E6"/>
<path d="M136.321 303.156H69.7365C69.3729 297.821 69.4049 292.467 69.8324 287.136C72.4929 254.21 90.3972 222.843 117.41 203.85C113.958 216.152 115.732 228.382 119.327 240.661C118.824 240.829 118.321 240.973 117.865 241.164C114.219 242.516 110.872 244.569 108.014 247.208C107.223 247.951 106.384 249.03 106.792 250.061C107.151 250.925 108.23 251.212 109.165 251.404C111.418 251.836 113.671 252.268 115.9 252.675C117.697 253.035 119.495 253.371 121.293 253.731C122.131 253.875 122.97 254.042 123.809 254.21C123.929 254.498 124.001 254.762 124.121 255.026C128.339 266.656 132.941 278.383 135.098 290.302C135.632 293.293 136 296.311 136.201 299.343C136.273 300.614 136.321 301.885 136.321 303.156Z" fill="#E6E6E6"/>
<path d="M425.697 267.28C425.944 279.012 424.326 290.708 420.903 301.932C420.783 302.34 420.639 302.748 420.496 303.155H349.933C350.941 298.185 352.543 293.355 354.702 288.767C360.575 276.296 370.162 265.625 379.63 255.025C392.668 240.421 405.396 225.936 407.409 206.943C412.577 214.826 416.702 223.347 419.681 232.291C416.034 233.643 412.688 235.696 409.83 238.334C409.039 239.078 408.2 240.157 408.607 241.188C408.991 242.051 410.045 242.339 410.98 242.531C413.233 242.963 415.486 243.394 417.739 243.802C419.513 244.162 421.311 244.497 423.108 244.833C424.688 252.215 425.555 259.732 425.697 267.28Z" fill="#E6E6E6"/>
<path d="M484.971 259.51C473.657 266.392 466.467 277.04 460.595 288.958C455.485 290.124 450.767 292.604 446.909 296.153C446.094 296.896 445.255 297.975 445.686 299.007C446.046 299.87 447.124 300.158 448.059 300.35C450.288 300.781 452.565 301.213 454.794 301.621C454.579 302.124 454.363 302.652 454.147 303.155H379.366C382.76 298.575 386.52 294.276 390.607 290.302C391.494 289.414 392.405 288.575 393.339 287.712C402.872 279.092 413.818 272.18 425.697 267.28C444.41 259.452 464.874 256.77 484.971 259.51Z" fill="#E6E6E6"/>
<path d="M391.83 303.156H325.245C324.882 297.821 324.914 292.467 325.341 287.136C328.002 254.21 345.906 222.843 372.918 203.85C369.467 216.152 371.241 228.382 374.836 240.661C374.333 240.829 373.829 240.973 373.374 241.164C369.727 242.516 366.381 244.569 363.523 247.208C362.732 247.951 361.893 249.03 362.3 250.061C362.66 250.925 363.739 251.212 364.673 251.404C366.926 251.836 369.179 252.268 371.408 252.675C373.206 253.035 375.004 253.371 376.801 253.731C377.64 253.875 378.479 254.042 379.318 254.21C379.438 254.498 379.51 254.762 379.63 255.026C383.848 266.656 388.45 278.383 390.607 290.302C391.141 293.293 391.509 296.311 391.71 299.343C391.782 300.614 391.83 301.885 391.83 303.156Z" fill="#E6E6E6"/>
<path d="M278.539 73.2412C278.533 86.0021 273.934 98.3341 265.583 107.98C257.233 117.625 245.69 123.939 233.067 125.766C220.444 127.593 207.586 124.81 196.846 117.927C186.107 111.044 178.204 100.521 174.584 88.2847C170.965 76.0484 171.871 62.9172 177.137 51.2946C182.402 39.6721 191.676 30.3358 203.259 24.9947C214.842 19.6536 227.96 18.6651 240.213 22.21C252.465 25.755 263.031 33.5962 269.977 44.2985C269.179 45.0071 268.431 45.7697 267.737 46.5811C267.555 46.7886 267.372 47.0126 267.198 47.2285C266.941 47.5439 266.701 47.8593 266.468 48.183C266.195 48.5565 265.937 48.9383 265.688 49.3284C264.458 51.2402 263.519 53.3241 262.901 55.512C264.513 53.5772 266.406 51.8956 268.517 50.5236C268.562 50.4938 268.609 50.4688 268.658 50.4489C268.866 50.3161 269.073 50.1833 269.289 50.0505C270.211 49.4883 271.167 48.9838 272.151 48.5399C272.234 48.5067 272.317 48.4652 272.4 48.432C276.446 56.0737 278.554 64.5932 278.539 73.2412Z" fill="#A6C3A4"/>
<path d="M250.209 303.189C249.105 302.276 248.027 301.338 246.973 300.359C238.561 292.446 231.951 282.812 227.594 272.113C224.029 263.482 221.942 254.312 221.422 244.988C221.298 242.78 221.273 240.581 221.331 238.381C221.482 232.644 222.275 226.942 223.695 221.382C225.363 214.925 227.868 208.725 230.49 202.599C231.784 199.57 233.128 196.532 234.422 193.469C238.371 184.156 241.921 174.619 242.469 164.452C243.145 151.351 239.319 138.413 231.626 127.79C230.689 126.495 232.846 125.25 233.775 126.537C234.729 127.84 235.625 129.184 236.463 130.57C243.19 141.724 246.078 154.777 244.684 167.73C243.68 176.553 240.693 184.845 237.292 192.979C235.542 197.196 233.675 201.362 231.916 205.554C231.385 206.816 230.863 208.077 230.357 209.356C228.384 214.151 226.789 219.094 225.587 224.138C224.337 229.717 223.733 235.42 223.787 241.137C223.803 242.647 223.853 244.15 223.953 245.652C224.608 255.601 227.094 265.342 231.286 274.387C236.086 284.829 243.154 294.067 251.976 301.429C253.212 302.45 251.436 304.201 250.209 303.189Z" fill="#3F3D56"/>
<path d="M231.908 280.156C230.556 279.783 229.218 279.37 227.893 278.919C217.091 275.172 207.215 269.158 198.925 261.282C190.637 253.474 184.041 244.047 179.546 233.584C177.299 228.342 175.643 222.866 174.61 217.257C174.049 214.071 173.653 210.857 173.423 207.629C173.133 203.703 173.034 199.752 172.984 195.818C172.876 186.904 173.017 177.79 171.665 168.959C170.945 163.839 169.559 158.836 167.542 154.077C162.672 142.886 154.368 133.536 143.832 127.383C142.447 126.578 143.7 124.428 145.085 125.234C146.371 125.981 147.632 126.769 148.86 127.616C158.853 134.511 166.519 144.28 170.843 155.629C172.378 159.76 173.474 164.042 174.112 168.403C175.613 178.122 175.331 188.149 175.506 197.951C175.564 201.288 175.68 204.633 175.945 207.97C176.198 211.562 176.689 215.133 177.414 218.66C178.581 224.174 180.364 229.54 182.731 234.655C187.538 244.966 194.447 254.157 203.014 261.638C211.547 269.138 221.641 274.644 232.564 277.757C234.107 278.189 233.451 280.596 231.908 280.156Z" fill="#3F3D56"/>
<path d="M137.503 128.52C129.781 131.946 121.353 133.479 112.92 132.992C104.488 132.504 96.2926 130.011 89.0163 125.719C81.7399 121.426 75.5923 115.459 71.0838 108.312C66.5754 101.165 63.8365 93.0446 63.0944 84.6258C62.3524 76.2071 63.6287 67.7327 66.8173 59.9066C70.006 52.0804 75.0149 45.1285 81.4281 39.6281C87.8413 34.1278 95.4736 30.2378 103.691 28.2814C111.909 26.3249 120.474 26.3584 128.676 28.3791C128.435 28.7111 128.203 29.0597 127.979 29.4083C126.749 31.32 125.81 33.404 125.192 35.5919C126.803 33.657 128.697 31.9755 130.808 30.6035C130.852 30.5737 130.899 30.5487 130.949 30.5288C131.156 30.396 131.364 30.2632 131.579 30.1304C131.928 29.9146 132.276 29.7154 132.633 29.5244C140.179 32.0143 147.071 36.1668 152.8 41.6759C152.002 42.2239 151.24 42.8228 150.519 43.4688C149.72 44.1773 148.972 44.94 148.279 45.7513C148.096 45.9588 147.914 46.1829 147.74 46.3987C147.482 46.7141 147.242 47.0295 147.009 47.3532C146.985 47.3947 146.951 47.4279 146.926 47.4695C146.686 47.8014 146.454 48.15 146.23 48.4987C145 50.4104 144.06 52.4944 143.442 54.6823C145.054 52.7474 146.947 51.0658 149.059 49.6939C149.103 49.6641 149.15 49.639 149.2 49.6192C149.407 49.4864 149.614 49.3536 149.83 49.2208C150.178 49.005 150.527 48.8058 150.884 48.6148C151.473 48.2912 152.078 47.9923 152.692 47.7101C152.775 47.677 152.858 47.6354 152.941 47.6022C154.252 47.028 155.609 46.5643 156.998 46.2161C162.189 52.5442 165.85 59.9866 167.694 67.963C169.538 75.9394 169.516 84.2341 167.629 92.2004C165.742 100.167 162.041 107.589 156.815 113.889C151.59 120.189 144.98 125.197 137.503 128.52L137.503 128.52Z" fill="#A6C3A4"/>
<path d="M290.28 74.3174C286.755 86.5814 287.763 99.7052 293.119 111.287C298.474 122.868 307.82 132.132 319.444 137.383C331.068 142.635 344.194 143.521 356.418 139.882C368.642 136.242 379.148 128.319 386.011 117.563C392.874 106.807 395.636 93.9384 393.792 81.3116C391.947 68.6848 385.619 57.1451 375.966 48.8047C366.313 40.4644 353.981 35.8814 341.227 35.8946C328.472 35.9078 316.15 40.5163 306.514 48.8767C307.085 49.7786 307.593 50.7187 308.035 51.6903C308.153 51.9403 308.266 52.2062 308.374 52.4618C308.534 52.8361 308.678 53.2058 308.811 53.5812C308.971 54.0159 309.112 54.454 309.244 54.8978C309.897 57.0755 310.223 59.3382 310.211 61.6118C309.198 59.3062 307.844 57.166 306.195 55.2629C306.16 55.222 306.122 55.1849 306.08 55.152C305.917 54.967 305.755 54.7819 305.584 54.5946C304.854 53.799 304.075 53.0495 303.252 52.3503C303.181 52.2955 303.113 52.2326 303.043 52.1777C297.04 58.4002 292.658 66.003 290.28 74.3174Z" fill="#A6C3A4"/>
<path d="M320.291 139.709C319.088 140.639 317.924 141.618 316.799 142.647C307.773 150.941 301.636 161.906 299.286 173.939C299.12 174.802 298.979 175.674 298.855 176.545C296.93 189.975 299.834 203.604 301.252 216.95C301.302 217.407 301.352 217.855 301.393 218.312C302.105 224.571 302.191 230.885 301.65 237.161C301.079 242.832 299.891 248.423 298.108 253.836C294.514 264.634 288.768 274.59 281.218 283.103C273.675 291.678 264.356 298.507 253.909 303.114C252.457 303.745 251.188 301.595 252.656 300.965C253.958 300.392 255.252 299.794 256.522 299.155C266.63 293.984 275.491 286.67 282.487 277.724C289.495 268.847 294.547 258.588 297.312 247.619C298.711 242.068 299.454 236.371 299.527 230.646C299.552 226.768 299.369 222.892 298.979 219.034C298.664 215.664 298.233 212.294 297.801 208.932C296.433 198.391 295.055 187.684 296.316 177.168C296.703 173.872 297.381 170.616 298.341 167.44C301.898 155.777 308.942 145.485 318.524 137.949C319.777 136.97 321.552 138.721 320.291 139.709Z" fill="#3F3D56"/>
<path d="M233.099 170.19C230.06 162.856 224.365 156.679 219.35 150.338C213.252 142.613 200.701 146.177 199.88 155.981C205.508 157.832 206.239 165.965 199.802 167.078C201.445 184.824 212.763 201.188 228.496 209.413L236.277 194.866C237.329 186.584 235.765 176.618 233.099 170.19Z" fill="#3F3D56"/>
<path d="M236.273 194.901C236.36 194.729 236.447 194.558 236.534 194.386L236.277 194.866L236.273 194.901Z" fill="#2F2E41"/>
<path d="M291.999 232.441C288.96 225.106 283.265 218.93 278.25 212.589C272.151 204.864 259.601 208.428 258.78 218.232C264.408 220.083 265.139 228.216 258.702 229.329C260.345 247.075 271.663 263.439 287.396 271.664L295.177 257.117C296.229 248.835 294.665 238.869 291.999 232.441Z" fill="#3F3D56"/>
<path d="M311.689 213.198C317.889 218.154 325.857 220.812 333.308 223.943C342.376 227.764 351.648 218.581 347.637 209.598C341.815 210.696 337.251 203.925 342.351 199.841C332.351 185.094 314.544 176.228 296.797 176.624L297.001 193.122C300.075 200.883 306.254 208.856 311.689 213.198Z" fill="#3F3D56"/>
<path d="M160.779 214.028C154.58 218.984 146.612 221.643 139.161 224.773C130.093 228.594 120.821 219.411 124.832 210.428C130.654 211.526 135.218 204.756 130.117 200.671C140.118 185.924 157.925 177.058 175.672 177.454L175.468 193.952C172.393 201.713 166.215 209.686 160.779 214.028Z" fill="#3F3D56"/>
<path d="M295.173 257.152C295.26 256.981 295.346 256.809 295.434 256.638L295.177 257.117L295.173 257.152Z" fill="#2F2E41"/>
<path d="M396.338 106.442L394.679 112.252L395.508 136.322L430.35 125.532L433.849 102.464L396.338 106.442Z" fill="#FBC4AE"/>
<path d="M371.11 287.528L362.485 285.85L364.852 251.765L377.581 254.242L371.11 287.528Z" fill="#FBC4AE"/>
<path d="M374.859 283.837L371.969 283.097L362.834 280.744L361.386 280.37L360.248 286.22L345.544 292.651C344.817 292.968 344.21 293.509 343.813 294.195C343.415 294.882 343.247 295.677 343.334 296.466C343.42 297.255 343.757 297.995 344.294 298.579C344.831 299.162 345.54 299.559 346.319 299.71L362.556 302.87L366.474 297.628L366.449 303.627L372.564 304.817L374.859 283.837Z" fill="#2F2E41"/>
<path d="M482.07 281.692L473.61 284.067L460.428 252.548L472.914 249.043L482.07 281.692Z" fill="#FBC4AE"/>
<path d="M483.763 276.709L480.848 277.346L471.63 279.348L470.168 279.664L471.777 285.402L461.525 297.755C461.018 298.364 460.718 299.121 460.671 299.912C460.624 300.704 460.831 301.491 461.262 302.157C461.693 302.822 462.326 303.333 463.068 303.613C463.81 303.893 464.622 303.929 465.385 303.714L481.312 299.242L482.46 292.799L485.13 298.17L491.128 296.486L483.763 276.709Z" fill="#2F2E41"/>
<path d="M393.849 131.342L433.205 119.22C433.205 119.22 432.01 123.042 436.957 131.266C442.126 139.857 445.056 149.883 445.168 157.779C445.411 174.858 447.697 191.847 452.811 208.144L453.255 209.559C453.255 209.559 465.174 219.288 470.17 240.074L480.445 265.315L467.681 269.125L434.253 218.729L431.077 216.157C428.765 214.285 426.883 211.938 425.556 209.275C424.23 206.612 423.49 203.695 423.388 200.722L413.347 184.08L405.883 198.73L393.815 215.906L386.45 241.202C384.229 252.986 382.388 264.018 374.769 273.275L360.986 271.432L370.621 213.514L379.257 188.344L385.732 169.471L389.701 157.903L393.849 131.342Z" fill="#2F2E41"/>
<path d="M391.44 119.225C390.914 122.543 391.766 125.612 391.339 129.531C391.269 130.18 389.613 131.699 389.562 132.344C389.44 133.882 390.658 134.517 390.695 135.975C390.724 137.113 389.537 139.097 389.698 140.144C391.402 151.174 401.322 156.072 437.714 132.753C437.714 132.753 440.934 130.82 438.712 126.858C438.119 125.801 440.709 124.571 440.934 123.086C441.105 121.958 439.692 120.491 439.875 119.22C440.091 117.72 440.313 116.128 440.535 114.461C443.437 92.7156 446.455 58.2747 438.022 49.6478L433.26 40.8706L415.418 43.9086L415.356 51.4386L402.67 64.6762C402.67 64.6762 390.378 77.3456 394.56 89.576C397.593 101.332 396.466 106.605 391.44 119.225Z" fill="#EB5A09"/>
<path d="M427.861 68.5544C426.543 68.1674 425.162 68.0442 423.797 68.1919C422.432 68.3395 421.109 68.7552 419.904 69.415C418.7 70.0748 417.637 70.9659 416.777 72.0372C415.917 73.1085 415.277 74.3389 414.892 75.6581L406.824 103.369L380.93 121.923C379.858 121.748 378.758 121.879 377.756 122.299C376.754 122.719 375.89 123.412 375.262 124.3C374.634 125.187 374.268 126.233 374.206 127.318C374.143 128.404 374.386 129.485 374.907 130.439C375.428 131.393 376.206 132.181 377.153 132.715C378.1 133.248 379.177 133.504 380.263 133.455C381.348 133.406 382.398 133.053 383.293 132.436C384.188 131.819 384.891 130.963 385.324 129.966L420.014 112.475L434.306 83.1617C434.972 81.7952 435.332 80.2998 435.361 78.7797C435.39 77.2597 435.087 75.7516 434.473 74.3607C433.86 72.9699 432.95 71.7298 431.808 70.7269C430.666 69.7241 429.319 68.9827 427.861 68.5544Z" fill="#FBC4AE"/>
<path d="M425.027 108.301L407.055 99.7379L406.993 99.5944C406.59 98.6612 406.477 97.6281 406.669 96.6298C406.861 95.6314 407.35 94.7141 408.071 93.9975L408.25 93.8176L415.301 69.3321L417.747 66.8858L417.772 65.1147C417.848 59.7602 418.333 54.4559 421.34 51.9232C423.039 50.4918 425.367 50.035 428.457 50.5242C430.675 50.8754 432.786 51.7212 434.633 52.999C436.481 54.2767 438.018 55.9538 439.13 57.906C440.242 59.8583 440.901 62.0357 441.059 64.2773C441.216 66.5189 440.868 68.7672 440.04 70.8559L439.55 72.0523L436.859 75.6885L435.977 82.1633L433.46 85.5214L425.027 108.301Z" fill="#EB5A09"/>
<path d="M400.898 43.5634L404.711 43.2294C404.274 41.7249 404.003 40.1774 403.901 38.6141C404.775 40.2979 405.982 41.7859 407.45 42.9872L429.316 41.0564L442.619 14.1946C439.452 3.78572 431.25 -2.34093 420.901 0.844198C420.278 1.03619 419.64 1.26517 419.005 1.52658C413.126 2.31115 407.78 5.34751 404.094 9.99642C400.407 14.6453 398.667 20.5441 399.24 26.4508C394.126 35.9346 398.093 39.3644 400.898 43.5634Z" fill="#2F2E41"/>
<path d="M415.952 38.9936C424.251 38.9936 430.979 32.2624 430.979 23.959C430.979 15.6556 424.251 8.92432 415.952 8.92432C407.653 8.92432 400.926 15.6556 400.926 23.959C400.926 32.2624 407.653 38.9936 415.952 38.9936Z" fill="#FBC4AE"/>
<path d="M395.823 19.806C397.433 20.9485 401.801 21.053 406.834 20.6728C406.796 20.5774 406.766 20.4796 406.736 20.3818C406.299 18.8774 406.028 17.3299 405.926 15.7666C406.8 17.4504 408.008 18.9384 409.475 20.1397C409.585 20.2294 409.695 20.319 409.812 20.4064C414.093 19.9613 418.552 19.2641 422.023 18.6484C422.271 27.6428 415.545 37.1538 418.049 41.8981L445.503 39.2268C444.7 37.1821 444.22 35.0251 444.08 32.8329C445.403 35.376 447.471 37.4536 450.008 38.787L452.341 38.5627L452.003 35.1356C453.483 19.7735 441.298 8.26325 426.139 5.03507C422.767 2.28433 418.445 0.980919 414.116 1.40976L410.688 1.74036C408.526 1.94995 406.427 2.5835 404.51 3.60484C402.593 4.62617 400.896 6.01528 399.516 7.69285C398.136 9.37042 397.099 11.3036 396.465 13.382C395.832 15.4604 395.614 17.6433 395.823 19.806Z" fill="#2F2E41"/>
<path d="M419.051 2.28397C422.488 2.89363 425.603 4.68953 427.854 7.35934C430.105 10.0291 431.35 13.4039 431.371 16.8968C431.38 17.1474 431.486 17.3848 431.666 17.559C431.846 17.7332 432.087 17.8305 432.337 17.8305C432.588 17.8305 432.829 17.7332 433.009 17.559C433.189 17.3848 433.295 17.1474 433.304 16.8968C433.282 12.9814 431.899 9.1956 429.392 6.18907C426.885 3.18255 423.41 1.14276 419.564 0.419735C418.348 0.200629 417.827 2.06341 419.051 2.28397H419.051Z" fill="#EB5A09"/>
<path d="M553.233 304.802L0.767128 305C0.564117 304.999 0.369627 304.918 0.226284 304.774C0.082941 304.63 0.00244141 304.436 0.00244141 304.232C0.00244141 304.029 0.082941 303.835 0.226284 303.691C0.369627 303.547 0.564117 303.466 0.767128 303.465L553.233 303.267C553.437 303.267 553.632 303.348 553.776 303.492C553.919 303.636 554 303.831 554 304.034C554 304.238 553.919 304.433 553.776 304.577C553.632 304.721 553.437 304.802 553.233 304.802Z" fill="#CACACA"/>
<path d="M372.6 81.4808C372.6 81.4808 373.509 71.6169 370.269 66.8028C366.26 60.8468 360.655 58.0577 353.561 59.1449C346.766 60.1863 342.5 64.104 340.167 70.5742C337.662 77.5215 341.669 82.1122 344.194 89.0519C346.484 95.3434 351.675 97.6403 351.972 104.329C352.293 111.542 350.43 117.154 344.471 121.225C339.576 124.568 335.321 124.476 329.47 123.531C322.658 122.43 319.04 119.565 314.191 114.654C308.049 108.434 304.643 94.4047 304.643 94.4047" stroke="#2F2E41" stroke-width="4" stroke-linecap="round"/>
<path d="M238.136 47.4472C238.136 47.4472 230.847 40.7432 225.057 40.4023C217.892 39.9807 212.277 42.7489 208.84 49.0524C205.547 55.0907 206.075 60.86 209.802 66.6394C213.805 72.845 219.883 72.4404 226.93 74.6385C233.319 76.6312 238.292 73.8941 243.789 77.7131C249.716 81.831 253.046 86.7158 252.669 93.9256C252.358 99.8477 249.705 103.177 245.406 107.259C240.401 112.012 235.93 113.153 229.087 114.033C220.419 115.149 207.204 109.353 207.204 109.353" stroke="#2F2E41" stroke-width="4" stroke-linecap="round"/>
<path d="M120.33 49.8542C120.33 49.8542 111.385 45.6084 105.752 46.9975C98.7841 48.7159 94.2393 53.0227 92.8204 60.0616C91.4613 66.8043 93.6714 72.1591 98.9416 76.5759C104.6 81.3184 110.287 79.1323 117.668 79.1453C124.36 79.1572 128.301 75.0703 134.681 77.0908C141.56 79.2693 146.187 82.9492 147.958 89.9479C149.413 95.6966 147.864 99.6624 144.965 104.835C141.59 110.856 137.656 113.27 131.38 116.137C123.43 119.769 109.093 118.145 109.093 118.145" stroke="#2F2E41" stroke-width="4" stroke-linecap="round"/>
<path d="M370.275 54.1421L316.932 128.364" stroke="#2F2E41" stroke-width="4" stroke-linecap="round"/>
<path d="M214.998 32.7212L241.646 120.166" stroke="#2F2E41" stroke-width="4" stroke-linecap="round"/>
<path d="M93.8721 42.6392L145.19 118.277" stroke="#2F2E41" stroke-width="4" stroke-linecap="round"/>
</g>
<defs>
<clipPath id="clip0_216_1816">
<rect width="554" height="305" fill="white"/>
</clipPath>
</defs>
</svg>
