<svg width="531" height="454" viewBox="0 0 531 454" fill="none" xmlns="http://www.w3.org/2000/svg">
<path fill-rule="evenodd" clip-rule="evenodd" d="M300.294 19.6963C369.23 28.0419 438.664 40.2826 482.979 86.3603C528.178 133.357 537.241 195.522 527.44 255.875C516.17 325.271 497.824 402.118 426.23 435.802C351.709 470.862 260.634 450.107 184.889 417.036C111.509 384.999 57.8848 331.04 32.4026 263.856C3.14611 186.72 -25.7146 91.6795 39.0845 32.6208C101.986 -24.7088 209.436 8.69662 300.294 19.6963Z" fill="white"/>
<path d="M106.132 331.735C105.721 331.753 105.315 331.646 104.968 331.426C104.621 331.206 104.349 330.885 104.191 330.506C104.032 330.126 103.994 329.708 104.082 329.306C104.169 328.905 104.378 328.539 104.679 328.261L104.817 327.715C104.799 327.671 104.78 327.627 104.762 327.583C104.349 326.607 103.656 325.774 102.77 325.189C101.885 324.605 100.847 324.295 99.7864 324.299C98.7258 324.303 97.69 324.621 96.8091 325.212C95.9282 325.802 95.2415 326.64 94.8353 327.62C93.2117 331.531 91.1446 335.449 90.6357 339.585C90.4115 341.413 90.506 343.265 90.9151 345.061C87.1018 336.741 85.1216 327.698 85.1089 318.546C85.1081 316.249 85.2357 313.954 85.491 311.672C85.7021 309.8 85.9949 307.943 86.3694 306.098C88.4133 296.09 92.8015 286.709 99.1738 278.727C102.258 277.044 104.752 274.456 106.32 271.311C106.888 270.181 107.29 268.974 107.512 267.728C107.165 267.774 106.201 262.474 106.463 262.149C105.978 261.413 105.11 261.047 104.581 260.329C101.947 256.758 98.3189 257.382 96.4247 262.235C92.3784 264.277 92.3392 267.665 94.822 270.923C96.4016 272.996 96.6187 275.8 98.0046 278.02C97.862 278.202 97.7137 278.379 97.5711 278.562C94.9646 281.914 92.6928 285.514 90.7884 289.309C91.2515 285.057 90.6987 280.756 89.1755 276.759C87.6318 273.034 84.7382 269.897 82.1902 266.677C79.1295 262.809 72.8533 264.497 72.3141 269.4C72.3089 269.448 72.3038 269.495 72.2988 269.542C72.6773 269.756 73.0478 269.983 73.4103 270.222C73.8656 270.527 74.2185 270.962 74.4226 271.47C74.6267 271.978 74.6725 272.536 74.5541 273.071C74.4356 273.606 74.1584 274.093 73.7587 274.467C73.3591 274.842 72.8556 275.087 72.3143 275.17L72.2589 275.179C72.3937 276.543 72.632 277.895 72.9718 279.223C69.7029 291.868 76.7602 296.473 86.8371 296.68C87.0595 296.794 87.2763 296.908 87.4988 297.016C85.5854 302.44 84.3852 308.089 83.9284 313.822C83.6697 317.205 83.685 320.602 83.974 323.982L83.9569 323.862C83.2267 320.104 81.2222 316.713 78.2818 314.261C73.9146 310.673 67.7445 309.352 63.033 306.468C62.5322 306.146 61.95 305.974 61.355 305.973C60.76 305.972 60.1769 306.14 59.6747 306.459C59.1724 306.778 58.7718 307.235 58.5202 307.774C58.2686 308.313 58.1764 308.913 58.2546 309.503C58.2609 309.545 58.2673 309.587 58.2738 309.629C58.9762 309.915 59.66 310.245 60.3214 310.616C60.6999 310.83 61.0704 311.056 61.4328 311.296C61.8882 311.6 62.2411 312.035 62.4452 312.544C62.6493 313.052 62.6951 313.61 62.5766 314.145C62.4582 314.68 62.1809 315.166 61.7813 315.541C61.3816 315.915 60.8782 316.16 60.3369 316.244L60.2814 316.252C60.2415 316.258 60.2073 316.264 60.1674 316.27C61.3675 319.135 63.0518 321.773 65.1466 324.068C67.1905 335.106 75.9693 336.153 85.3599 332.939H85.3656C86.3959 337.417 87.8888 341.776 89.8201 345.945H105.733C105.79 345.768 105.841 345.586 105.893 345.409C104.42 345.502 102.941 345.413 101.489 345.147C102.67 343.698 103.851 342.237 105.031 340.788C105.058 340.761 105.083 340.733 105.106 340.703C105.704 339.961 106.309 339.225 106.908 338.484L106.908 338.483C106.94 336.209 106.679 333.942 106.132 331.735L106.132 331.735Z" fill="#F2F2F2"/>
<path d="M438.498 331.735C438.908 331.753 439.315 331.646 439.662 331.426C440.009 331.206 440.28 330.885 440.439 330.506C440.597 330.126 440.635 329.708 440.548 329.306C440.461 328.905 440.252 328.539 439.95 328.261L439.813 327.715C439.831 327.671 439.849 327.627 439.868 327.583C440.281 326.607 440.974 325.774 441.859 325.189C442.744 324.605 443.783 324.295 444.843 324.299C445.904 324.303 446.94 324.621 447.821 325.212C448.701 325.802 449.388 326.64 449.794 327.62C451.418 331.531 453.485 335.449 453.994 339.585C454.218 341.413 454.124 343.265 453.715 345.061C457.528 336.741 459.508 327.698 459.521 318.546C459.522 316.249 459.394 313.954 459.139 311.672C458.928 309.8 458.635 307.943 458.26 306.098C456.216 296.09 451.828 286.709 445.456 278.727C442.372 277.044 439.877 274.456 438.309 271.311C437.741 270.181 437.34 268.974 437.117 267.728C437.465 267.774 438.429 262.474 438.167 262.149C438.651 261.413 439.519 261.047 440.049 260.329C442.682 256.758 446.311 257.382 448.205 262.235C452.251 264.277 452.29 267.665 449.808 270.923C448.228 272.996 448.011 275.8 446.625 278.02C446.768 278.202 446.916 278.379 447.058 278.562C449.665 281.914 451.937 285.514 453.841 289.309C453.378 285.057 453.931 280.756 455.454 276.759C456.998 273.034 459.891 269.897 462.439 266.677C465.5 262.809 471.776 264.497 472.316 269.4C472.321 269.448 472.326 269.495 472.331 269.542C471.952 269.756 471.582 269.983 471.219 270.222C470.764 270.527 470.411 270.962 470.207 271.47C470.003 271.978 469.957 272.536 470.076 273.071C470.194 273.606 470.471 274.093 470.871 274.467C471.271 274.842 471.774 275.087 472.315 275.17L472.371 275.179C472.236 276.543 471.998 277.895 471.658 279.223C474.927 291.868 467.869 296.473 457.793 296.68C457.57 296.794 457.353 296.908 457.131 297.016C459.044 302.44 460.244 308.089 460.701 313.822C460.96 317.205 460.945 320.602 460.656 323.982L460.673 323.862C461.403 320.104 463.407 316.713 466.348 314.261C470.715 310.673 476.885 309.352 481.597 306.468C482.097 306.146 482.68 305.974 483.275 305.973C483.87 305.972 484.453 306.14 484.955 306.459C485.457 306.778 485.858 307.235 486.109 307.774C486.361 308.313 486.453 308.913 486.375 309.503C486.369 309.545 486.362 309.587 486.356 309.629C485.653 309.915 484.97 310.245 484.308 310.616C483.93 310.83 483.559 311.056 483.197 311.296C482.741 311.6 482.389 312.035 482.184 312.544C481.98 313.052 481.935 313.61 482.053 314.145C482.171 314.68 482.449 315.166 482.848 315.541C483.248 315.915 483.751 316.16 484.293 316.244L484.348 316.252C484.388 316.258 484.422 316.264 484.462 316.27C483.262 319.135 481.578 321.773 479.483 324.068C477.439 335.106 468.66 336.153 459.27 332.939H459.264C458.234 337.417 456.741 341.776 454.81 345.945H438.897C438.84 345.768 438.788 345.586 438.737 345.409C440.21 345.502 441.689 345.413 443.14 345.147C441.959 343.698 440.779 342.237 439.598 340.788C439.572 340.761 439.547 340.733 439.524 340.703C438.925 339.961 438.321 339.225 437.722 338.484L437.721 338.483C437.69 336.209 437.95 333.942 438.497 331.735L438.498 331.735Z" fill="#F2F2F2"/>
<path d="M124.435 345.589H150.113C154.505 330.799 150.136 295.844 155.925 281.557C167.031 254.164 181.219 225.26 207.701 211.884C219.008 206.173 231.336 203.942 243.926 204.064C261.319 204.229 279.2 208.898 295.571 215.087C302.268 217.613 308.903 220.39 315.513 223.229C340.414 233.931 365.045 245.588 391.823 248.739C425.709 252.723 465.549 237.559 474.804 204.897C481.868 179.891 469.146 153.929 455.805 131.596C442.464 109.263 427.551 85.3674 429.987 59.5102C429.996 59.4234 430.005 59.3279 430.022 59.2411C430.939 49.9537 436.483 43.2791 444.228 39H410.508C410.063 63.1212 424.015 84.4126 436.57 105.435C449.911 127.76 462.633 153.73 455.569 178.736C446.314 211.39 369.678 173.113 335.793 169.12C326.224 168.001 341.424 171.985 332.3 169.12C317.99 164.633 316.404 205.791 302.477 199.75C293.807 195.983 285.129 192.242 276.336 188.918C272.695 187.537 268.976 186.244 265.213 185.046C265.204 185.046 265.204 185.046 265.195 185.038C239.927 177.035 212.293 173.919 188.946 185.489C188.789 185.567 188.623 185.645 188.466 185.723C161.985 199.09 147.796 227.994 136.69 255.388C127.514 278.033 128.957 321.702 124.435 345.589Z" fill="#F2F2F2"/>
<path d="M267.298 344.832C332.433 344.832 385.236 292.018 385.236 226.87C385.236 161.721 332.433 108.908 267.298 108.908C202.163 108.908 149.36 161.721 149.36 226.87C149.36 292.018 202.163 344.832 267.298 344.832Z" fill="white"/>
<path d="M266.961 345.589C150.273 348.27 147.715 292.822 147.715 226.869C147.715 160.918 201.36 107.263 267.298 107.263C333.237 107.263 386.882 160.918 386.882 226.869C386.882 292.822 332.9 345.589 266.961 345.589ZM267.298 110.554C203.174 110.554 152.085 162.742 151.005 226.869C150.001 286.516 213.353 360.946 267.298 343.186C296.228 311.319 378.019 276.996 383.591 226.869C390.677 163.126 331.423 110.554 267.298 110.554V110.554Z" fill="#3F3D56"/>
<path d="M251.209 288.263C249.172 288.263 247.163 287.789 245.342 286.878C243.52 285.966 241.936 284.643 240.715 283.014L208.539 240.104C207.505 238.725 206.752 237.157 206.324 235.487C205.895 233.817 205.8 232.08 206.044 230.373C206.287 228.667 206.864 227.025 207.742 225.542C208.62 224.059 209.781 222.763 211.16 221.729C212.539 220.695 214.107 219.943 215.777 219.515C217.446 219.088 219.184 218.993 220.889 219.238C222.595 219.482 224.236 220.06 225.719 220.938C227.201 221.817 228.496 222.979 229.53 224.359L250.58 252.429L304.645 171.317C306.575 168.423 309.576 166.415 312.987 165.734C316.398 165.052 319.94 165.754 322.834 167.683C325.728 169.613 327.737 172.613 328.42 176.025C329.104 179.436 328.404 182.979 326.476 185.874L262.126 282.42C260.962 284.166 259.396 285.607 257.56 286.623C255.724 287.639 253.671 288.2 251.574 288.259C251.452 288.261 251.33 288.263 251.209 288.263Z" fill="#F2F2F2"/>
<path d="M288.669 274.176C286.633 274.176 284.624 273.702 282.802 272.79C280.981 271.879 279.397 270.556 278.175 268.926L246 226.017C244.965 224.638 244.212 223.069 243.784 221.4C243.356 219.73 243.261 217.993 243.504 216.286C243.747 214.58 244.325 212.938 245.202 211.455C246.08 209.972 247.242 208.676 248.62 207.642C249.999 206.608 251.568 205.856 253.237 205.428C254.907 205.001 256.644 204.906 258.35 205.15C260.056 205.395 261.697 205.973 263.179 206.851C264.662 207.73 265.957 208.892 266.99 210.272L288.04 238.342L342.105 157.23C343.061 155.796 344.289 154.565 345.721 153.606C347.152 152.647 348.759 151.979 350.448 151.642C352.137 151.304 353.877 151.302 355.567 151.636C357.257 151.971 358.865 152.635 360.298 153.591C361.732 154.546 362.963 155.775 363.921 157.207C364.88 158.639 365.547 160.245 365.885 161.935C366.223 163.625 366.225 165.365 365.891 167.055C365.556 168.746 364.892 170.354 363.937 171.787L299.586 268.333C298.422 270.079 296.856 271.52 295.02 272.536C293.184 273.552 291.132 274.113 289.034 274.172C288.913 274.174 288.791 274.176 288.669 274.176Z" fill="#83D983"/>
</svg>
