<svg width="424" height="300" viewBox="0 0 424 300" fill="none" xmlns="http://www.w3.org/2000/svg">
<g clip-path="url(#clip0_202_392)">
<path d="M43.8541 292.435L50.8912 292.435L54.2392 265.337L43.8525 265.338L43.8541 292.435Z" fill="#FBC4AE"/>
<path d="M43.6063 299.764L65.2475 299.763V299.49C65.2473 297.26 64.3598 295.121 62.7802 293.545C61.2005 291.968 59.0581 291.082 56.8242 291.082H56.8236L52.8706 288.088L45.4951 291.082L43.606 291.082L43.6063 299.764Z" fill="#2F2E41"/>
<path d="M55.2188 259.651L60.759 263.982L80.1341 244.712L71.9572 238.318L55.2188 259.651Z" fill="#FBC4AE"/>
<path d="M50.4961 265.267L67.5329 278.589L67.7017 278.374C69.0792 276.618 69.7017 274.389 69.4323 272.175C69.1629 269.961 68.0236 267.945 66.2651 266.569L66.2647 266.569L65.0022 261.779L57.3463 259.596L55.8591 258.433L50.4961 265.267Z" fill="#2F2E41"/>
<path d="M88.3511 136.185C88.3511 136.185 97.6913 145.854 93.5401 168.3L97.0251 206.734L97.9246 208.513C98.4605 209.573 98.6477 210.775 98.4593 211.947C98.2709 213.12 97.7167 214.203 96.8755 215.043L96.1346 217.337L95.4427 221.826L69.6707 260.503L59.8116 250.143L75.7245 213.883L71.4004 204.56L61.3684 172.099L54.4497 231.495L55.8334 282.604H42.5913L34.3856 225.625L25.7373 145.508L30.2358 136.185H88.3511Z" fill="#2F2E41"/>
<path d="M27.8941 152.799L27.7998 152.666C22.7594 145.622 30.3401 128.695 31.4835 126.241C30.1258 125.801 28.9628 124.905 28.1926 123.705C27.4223 122.506 27.0925 121.077 27.2593 119.661L27.7522 115.479L28.2659 111.377L24.5853 107.702L24.575 107.611L22.4569 89.1096L19.3772 76.8213C18.2168 72.1759 18.3157 67.3058 19.6637 62.7112C21.0117 58.1165 23.5603 53.9627 27.0479 50.6762L34.1666 49.5478L42.818 41.2266H56.7694L61.5531 45.789C70.483 47.3524 72.0172 46.8419 79.6878 56.0306L76.2023 84.5986L75.3328 88.5287L75.3354 93.8592L77.546 96.3117C78.3423 97.1951 78.9209 98.2519 79.2357 99.398C79.5506 100.544 79.5929 101.748 79.3595 102.913L79.0687 104.364C81.3486 105.339 83.5242 122.673 84.0439 125.094L84.8203 128.711C85.4846 129.586 89.869 135.421 89.869 137.017C89.869 137.256 89.6919 137.488 89.3118 137.745C86.3239 139.764 74.4115 154.092 67.1023 151.172C59.3165 148.064 28.3668 152.726 28.055 152.774L27.8941 152.799Z" fill="#DF2A43"/>
<path d="M26.0196 119.579C26.0196 119.579 29.6023 99.3662 25.9929 91.7646L11.6743 92.7856L13.8534 121.621L26.3705 153.637C26.1795 154.624 26.2533 155.643 26.5844 156.592C26.9156 157.541 27.4923 158.385 28.2561 159.039C29.0198 159.694 29.9434 160.135 30.9331 160.317C31.9227 160.5 32.9432 160.418 33.8909 160.08C34.8386 159.742 35.6798 159.159 36.3291 158.392C36.9783 157.624 37.4126 156.699 37.5877 155.709C37.7628 154.72 37.6726 153.702 37.3262 152.758C36.9798 151.815 36.3895 150.98 35.6153 150.338L26.0196 119.579Z" fill="#FBC4AE"/>
<path d="M11.6746 81.0447L12.5608 71.4112C12.8943 67.7856 13.9426 64.2615 15.6455 61.0417C17.3483 57.8219 19.672 54.97 22.4829 52.65C24.2295 51.2191 26.3421 50.3044 28.5821 50.0093C30.822 49.7141 33.1001 50.0502 35.1587 50.9796C37.9409 52.2583 40.1328 54.5438 41.2914 57.3741C42.45 60.2044 42.4888 63.3682 41.3999 66.226C38.0905 74.8901 39.2855 84.0527 32.8326 85.1698L33.5336 88.4994L27.1888 109.169L9.11768 107.079L11.6746 81.0447Z" fill="#DF2A43"/>
<path d="M106.984 109.999C106.984 109.999 96.4957 92.3433 88.7935 88.9302L78.6055 99.0254L99.0948 119.467L129.499 135.591C129.999 136.463 130.721 137.188 131.592 137.691C132.463 138.195 133.451 138.46 134.458 138.458C135.464 138.457 136.452 138.19 137.322 137.685C138.192 137.179 138.912 136.453 139.409 135.579C139.907 134.706 140.164 133.717 140.155 132.712C140.146 131.707 139.87 130.723 139.357 129.859C138.843 128.995 138.11 128.282 137.231 127.792C136.352 127.303 135.359 127.054 134.353 127.071L106.984 109.999Z" fill="#FBC4AE"/>
<path d="M70.9353 90.1244L65.3139 82.2443C63.1982 79.2785 61.6908 75.9244 60.8783 72.375C60.0659 68.8255 59.9644 65.1507 60.5798 61.562C60.9691 59.3403 61.9732 57.2715 63.4785 55.5896C64.9838 53.9076 66.9304 52.6794 69.0982 52.0439C72.0427 51.2021 75.1975 51.5078 77.9248 52.8992C80.6521 54.2907 82.7483 56.664 83.7897 59.5393C86.9409 68.2621 98.4349 82.5981 94.2725 87.6458L96.9792 89.7136L101.07 101.346L86.0046 111.526L70.9353 90.1244Z" fill="#DF2A43"/>
<path d="M48.8525 37.207C57.4096 37.207 64.3466 30.2822 64.3466 21.74C64.3466 13.1978 57.4096 6.27295 48.8525 6.27295C40.2953 6.27295 33.3584 13.1978 33.3584 21.74C33.3584 30.2822 40.2953 37.207 48.8525 37.207Z" fill="#FBC4AE"/>
<path d="M37.6063 32.6419C37.4716 32.5235 37.3444 32.3971 37.2126 32.2754C37.2079 32.2879 37.2072 32.3007 37.2021 32.3131L37.6063 32.6419Z" fill="#2F2E41"/>
<path d="M61.5495 5.40669C60.7797 4.16959 59.7134 3.14332 58.4469 2.42049C57.5812 2.00136 56.6715 1.67962 55.7346 1.46119L53.2826 0.793334C52.0262 0.40525 50.7336 0.145437 49.4247 0.0179014C47.6071 -0.071608 45.7998 0.339224 44.2001 1.20552C42.6005 2.07181 41.2702 3.36025 40.3543 4.93011C39.6135 6.24183 39.0193 7.8764 37.5894 8.3563C36.4365 8.74328 35.1787 8.19743 33.967 8.30333C33.257 8.40604 32.5833 8.68199 32.0057 9.10673C31.428 9.53148 30.9643 10.0919 30.6554 10.7383C30.0516 12.0392 29.7544 13.4609 29.7867 14.8943C29.7391 18.1486 30.3753 21.3767 31.6544 24.3705C32.9334 27.3642 34.8269 30.057 37.2127 32.2753C37.6126 31.223 36.9539 30.087 36.4332 29.0804C35.9064 28.0619 35.5808 26.6419 36.4632 25.9083C37.4451 25.0921 39.0181 25.8836 40.1793 25.3513C40.5508 25.1383 40.8637 24.8367 41.09 24.4736C41.3163 24.1105 41.449 23.6971 41.4762 23.2703C41.5886 22.4245 41.4713 21.5648 41.5244 20.7134C41.5772 19.8693 41.7968 19.044 42.1708 18.2852C42.5448 17.5264 43.0657 16.849 43.7033 16.2923C44.341 15.7355 45.0829 15.3104 45.8861 15.0415C46.6893 14.7725 47.5379 14.6651 48.3829 14.7253C51.0259 14.9138 53.5909 16.7167 56.1344 15.975C57.3283 15.6268 58.3466 14.7404 59.5814 14.5913C60.949 14.4261 62.2354 15.1966 63.3966 15.9363C63.8185 14.1478 63.8724 12.2923 63.5549 10.4824C63.2374 8.67247 62.5551 6.9457 61.5495 5.40669Z" fill="#2F2E41"/>
<path d="M115.264 291.074L111.322 284.749L110.534 288.364C110.396 288.997 110.258 289.64 110.13 290.278C109.01 289.323 107.819 288.44 106.653 287.593C103.073 284.999 99.4953 282.403 95.9189 279.803L97.0388 286.286C97.7292 290.278 98.4504 294.352 100.158 298.002C100.348 298.415 100.552 298.823 100.772 299.222H117.412C117.546 298.852 117.639 298.468 117.688 298.078C117.693 298.053 117.694 298.027 117.693 298.002C117.954 295.526 116.584 293.193 115.264 291.074Z" fill="#F0F0F0"/>
<path d="M403.724 284.243L396.573 272.771L395.144 279.327C394.894 280.475 394.643 281.642 394.411 282.799C392.38 281.067 390.219 279.465 388.104 277.928C381.611 273.225 375.121 268.514 368.634 263.798L370.665 275.558C371.917 282.799 373.225 290.188 376.323 296.809C376.667 297.559 377.038 298.3 377.437 299.022H407.62C407.863 298.351 408.031 297.655 408.121 296.948C408.129 296.902 408.132 296.855 408.13 296.809C408.603 292.318 406.117 288.086 403.724 284.243Z" fill="#F0F0F0"/>
<path d="M423.391 299.843L0.609083 300C0.4479 299.999 0.293483 299.935 0.179675 299.821C0.0658664 299.707 0.00195312 299.553 0.00195312 299.392C0.00195312 299.231 0.0658664 299.077 0.179675 298.963C0.293483 298.849 0.4479 298.785 0.609083 298.784L423.391 298.627C423.553 298.628 423.707 298.692 423.821 298.806C423.935 298.92 423.999 299.074 423.999 299.235C423.999 299.396 423.935 299.55 423.821 299.664C423.707 299.778 423.553 299.843 423.391 299.843Z" fill="#CACACA"/>
<path d="M132.65 121.647V268.168C132.652 270.036 133.396 271.826 134.718 273.146C136.041 274.467 137.834 275.209 139.705 275.211H357.214C359.085 275.209 360.878 274.467 362.201 273.146C363.524 271.826 364.267 270.036 364.269 268.168V121.647C364.264 119.781 363.52 117.994 362.197 116.675C360.875 115.357 359.083 114.615 357.214 114.613H139.705C137.836 114.615 136.044 115.357 134.722 116.675C133.4 117.994 132.655 119.781 132.65 121.647Z" fill="#3F3D56"/>
<path d="M137.753 123.47V266.361C137.755 267.359 138.153 268.315 138.86 269.02C139.566 269.726 140.524 270.123 141.524 270.125H355.404C356.404 270.123 357.362 269.726 358.068 269.02C358.775 268.315 359.173 267.359 359.174 266.361V123.47C359.174 122.471 358.777 121.513 358.071 120.806C357.364 120.099 356.405 119.701 355.404 119.699H141.524C140.523 119.701 139.564 120.099 138.857 120.806C138.151 121.513 137.754 122.471 137.753 123.47Z" fill="white"/>
<path d="M128.102 296.744C128.5 297.243 129.007 297.645 129.583 297.92C130.16 298.196 130.791 298.337 131.43 298.334H364.332C364.969 298.333 365.598 298.19 366.172 297.917C366.747 297.643 367.254 297.244 367.655 296.751C368.056 296.257 368.342 295.68 368.492 295.062C368.642 294.444 368.652 293.8 368.521 293.178L364.906 276.035C364.756 275.336 364.433 274.686 363.967 274.143C363.501 273.6 362.906 273.182 362.237 272.928C361.753 272.738 361.237 272.641 360.717 272.641H135.031C134.511 272.641 133.995 272.738 133.51 272.928C132.841 273.182 132.247 273.6 131.781 274.143C131.314 274.686 130.992 275.336 130.842 276.035L127.227 293.178C127.098 293.8 127.11 294.443 127.261 295.06C127.413 295.677 127.7 296.252 128.102 296.744Z" fill="#2F2E41"/>
<path d="M352.138 280.025H358.812C358.95 280.025 359.062 279.913 359.062 279.776V275.978C359.062 275.84 358.95 275.728 358.812 275.728H352.138C352.001 275.728 351.889 275.84 351.889 275.978V279.776C351.889 279.913 352.001 280.025 352.138 280.025Z" fill="#3F3D56"/>
<path d="M337.792 280.025H344.466C344.604 280.025 344.716 279.913 344.716 279.776V275.978C344.716 275.84 344.604 275.728 344.466 275.728H337.792C337.654 275.728 337.543 275.84 337.543 275.978V279.776C337.543 279.913 337.654 280.025 337.792 280.025Z" fill="#3F3D56"/>
<path d="M323.446 280.025H330.119C330.257 280.025 330.369 279.913 330.369 279.776V275.978C330.369 275.84 330.257 275.728 330.119 275.728H323.446C323.308 275.728 323.196 275.84 323.196 275.978V279.776C323.196 279.913 323.308 280.025 323.446 280.025Z" fill="#3F3D56"/>
<path d="M309.099 280.025H315.773C315.911 280.025 316.022 279.913 316.022 279.776V275.978C316.022 275.84 315.911 275.728 315.773 275.728H309.099C308.961 275.728 308.849 275.84 308.849 275.978V279.776C308.849 279.913 308.961 280.025 309.099 280.025Z" fill="#3F3D56"/>
<path d="M294.752 280.025H301.426C301.564 280.025 301.676 279.913 301.676 279.776V275.978C301.676 275.84 301.564 275.728 301.426 275.728H294.752C294.614 275.728 294.503 275.84 294.503 275.978V279.776C294.503 279.913 294.614 280.025 294.752 280.025Z" fill="#3F3D56"/>
<path d="M280.406 280.025H287.08C287.218 280.025 287.33 279.913 287.33 279.776V275.978C287.33 275.84 287.218 275.728 287.08 275.728H280.406C280.268 275.728 280.156 275.84 280.156 275.978V279.776C280.156 279.913 280.268 280.025 280.406 280.025Z" fill="#3F3D56"/>
<path d="M266.059 280.025H272.733C272.871 280.025 272.983 279.913 272.983 279.776V275.978C272.983 275.84 272.871 275.728 272.733 275.728H266.059C265.921 275.728 265.81 275.84 265.81 275.978V279.776C265.81 279.913 265.921 280.025 266.059 280.025Z" fill="#3F3D56"/>
<path d="M251.713 280.025H258.387C258.524 280.025 258.636 279.913 258.636 279.776V275.978C258.636 275.84 258.524 275.728 258.387 275.728H251.713C251.575 275.728 251.463 275.84 251.463 275.978V279.776C251.463 279.913 251.575 280.025 251.713 280.025Z" fill="#3F3D56"/>
<path d="M237.366 280.025H244.04C244.178 280.025 244.29 279.913 244.29 279.776V275.978C244.29 275.84 244.178 275.728 244.04 275.728H237.366C237.229 275.728 237.117 275.84 237.117 275.978V279.776C237.117 279.913 237.229 280.025 237.366 280.025Z" fill="#3F3D56"/>
<path d="M223.02 280.025H229.694C229.832 280.025 229.943 279.913 229.943 279.776V275.978C229.943 275.84 229.832 275.728 229.694 275.728H223.02C222.882 275.728 222.77 275.84 222.77 275.978V279.776C222.77 279.913 222.882 280.025 223.02 280.025Z" fill="#3F3D56"/>
<path d="M208.673 280.025H215.347C215.485 280.025 215.597 279.913 215.597 279.776V275.978C215.597 275.84 215.485 275.728 215.347 275.728H208.673C208.535 275.728 208.423 275.84 208.423 275.978V279.776C208.423 279.913 208.535 280.025 208.673 280.025Z" fill="#3F3D56"/>
<path d="M194.327 280.025H201.001C201.139 280.025 201.25 279.913 201.25 279.776V275.978C201.25 275.84 201.139 275.728 201.001 275.728H194.327C194.189 275.728 194.077 275.84 194.077 275.978V279.776C194.077 279.913 194.189 280.025 194.327 280.025Z" fill="#3F3D56"/>
<path d="M179.98 280.025H186.654C186.792 280.025 186.904 279.913 186.904 279.776V275.978C186.904 275.84 186.792 275.728 186.654 275.728H179.98C179.842 275.728 179.731 275.84 179.731 275.978V279.776C179.731 279.913 179.842 280.025 179.98 280.025Z" fill="#3F3D56"/>
<path d="M165.634 280.025H172.307C172.445 280.025 172.557 279.913 172.557 279.776V275.978C172.557 275.84 172.445 275.728 172.307 275.728H165.634C165.496 275.728 165.384 275.84 165.384 275.978V279.776C165.384 279.913 165.496 280.025 165.634 280.025Z" fill="#3F3D56"/>
<path d="M151.287 280.025H157.961C158.099 280.025 158.21 279.913 158.21 279.776V275.978C158.21 275.84 158.099 275.728 157.961 275.728H151.287C151.149 275.728 151.037 275.84 151.037 275.978V279.776C151.037 279.913 151.149 280.025 151.287 280.025Z" fill="#3F3D56"/>
<path d="M136.941 280.025H143.615C143.752 280.025 143.864 279.913 143.864 279.776V275.978C143.864 275.84 143.752 275.728 143.615 275.728H136.941C136.803 275.728 136.691 275.84 136.691 275.978V279.776C136.691 279.913 136.803 280.025 136.941 280.025Z" fill="#3F3D56"/>
<path d="M352.308 287.186H358.982C359.12 287.186 359.232 287.074 359.232 286.937V283.139C359.232 283.001 359.12 282.89 358.982 282.89H352.308C352.17 282.89 352.059 283.001 352.059 283.139V286.937C352.059 287.074 352.17 287.186 352.308 287.186Z" fill="#3F3D56"/>
<path d="M337.962 287.186H344.636C344.773 287.186 344.885 287.074 344.885 286.937V283.139C344.885 283.001 344.773 282.89 344.636 282.89H337.962C337.824 282.89 337.712 283.001 337.712 283.139V286.937C337.712 287.074 337.824 287.186 337.962 287.186Z" fill="#3F3D56"/>
<path d="M323.615 287.186H330.289C330.427 287.186 330.539 287.074 330.539 286.937V283.139C330.539 283.001 330.427 282.89 330.289 282.89H323.615C323.477 282.89 323.365 283.001 323.365 283.139V286.937C323.365 287.074 323.477 287.186 323.615 287.186Z" fill="#3F3D56"/>
<path d="M309.268 287.186H315.942C316.08 287.186 316.192 287.074 316.192 286.937V283.139C316.192 283.001 316.08 282.89 315.942 282.89H309.268C309.13 282.89 309.019 283.001 309.019 283.139V286.937C309.019 287.074 309.13 287.186 309.268 287.186Z" fill="#3F3D56"/>
<path d="M294.922 287.186H301.596C301.734 287.186 301.846 287.074 301.846 286.937V283.139C301.846 283.001 301.734 282.89 301.596 282.89H294.922C294.784 282.89 294.672 283.001 294.672 283.139V286.937C294.672 287.074 294.784 287.186 294.922 287.186Z" fill="#3F3D56"/>
<path d="M280.575 287.186H287.249C287.387 287.186 287.499 287.074 287.499 286.937V283.139C287.499 283.001 287.387 282.89 287.249 282.89H280.575C280.438 282.89 280.326 283.001 280.326 283.139V286.937C280.326 287.074 280.438 287.186 280.575 287.186Z" fill="#3F3D56"/>
<path d="M266.229 287.186H272.903C273.041 287.186 273.152 287.074 273.152 286.937V283.139C273.152 283.001 273.041 282.89 272.903 282.89H266.229C266.091 282.89 265.979 283.001 265.979 283.139V286.937C265.979 287.074 266.091 287.186 266.229 287.186Z" fill="#3F3D56"/>
<path d="M251.882 287.186H258.556C258.694 287.186 258.806 287.074 258.806 286.937V283.139C258.806 283.001 258.694 282.89 258.556 282.89H251.882C251.744 282.89 251.632 283.001 251.632 283.139V286.937C251.632 287.074 251.744 287.186 251.882 287.186Z" fill="#3F3D56"/>
<path d="M237.536 287.186H244.21C244.348 287.186 244.459 287.074 244.459 286.937V283.139C244.459 283.001 244.348 282.89 244.21 282.89H237.536C237.398 282.89 237.286 283.001 237.286 283.139V286.937C237.286 287.074 237.398 287.186 237.536 287.186Z" fill="#3F3D56"/>
<path d="M223.189 287.186H229.863C230.001 287.186 230.113 287.074 230.113 286.937V283.139C230.113 283.001 230.001 282.89 229.863 282.89H223.189C223.051 282.89 222.94 283.001 222.94 283.139V286.937C222.94 287.074 223.051 287.186 223.189 287.186Z" fill="#3F3D56"/>
<path d="M208.842 287.186H215.516C215.654 287.186 215.766 287.074 215.766 286.937V283.139C215.766 283.001 215.654 282.89 215.516 282.89H208.842C208.705 282.89 208.593 283.001 208.593 283.139V286.937C208.593 287.074 208.705 287.186 208.842 287.186Z" fill="#3F3D56"/>
<path d="M194.496 287.186H201.17C201.308 287.186 201.42 287.074 201.42 286.937V283.139C201.42 283.001 201.308 282.89 201.17 282.89H194.496C194.358 282.89 194.247 283.001 194.247 283.139V286.937C194.247 287.074 194.358 287.186 194.496 287.186Z" fill="#3F3D56"/>
<path d="M180.15 287.186H186.824C186.961 287.186 187.073 287.074 187.073 286.937V283.139C187.073 283.001 186.961 282.89 186.824 282.89H180.15C180.012 282.89 179.9 283.001 179.9 283.139V286.937C179.9 287.074 180.012 287.186 180.15 287.186Z" fill="#3F3D56"/>
<path d="M165.803 287.186H172.477C172.615 287.186 172.727 287.074 172.727 286.937V283.139C172.727 283.001 172.615 282.89 172.477 282.89H165.803C165.665 282.89 165.553 283.001 165.553 283.139V286.937C165.553 287.074 165.665 287.186 165.803 287.186Z" fill="#3F3D56"/>
<path d="M151.457 287.186H158.131C158.269 287.186 158.38 287.074 158.38 286.937V283.139C158.38 283.001 158.269 282.89 158.131 282.89H151.457C151.319 282.89 151.207 283.001 151.207 283.139V286.937C151.207 287.074 151.319 287.186 151.457 287.186Z" fill="#3F3D56"/>
<path d="M137.11 287.186H143.784C143.922 287.186 144.034 287.074 144.034 286.937V283.139C144.034 283.001 143.922 282.89 143.784 282.89H137.11C136.972 282.89 136.86 283.001 136.86 283.139V286.937C136.86 287.074 136.972 287.186 137.11 287.186Z" fill="#3F3D56"/>
<path d="M217.379 295.779H274.266C274.404 295.779 274.516 295.667 274.516 295.53V291.732C274.516 291.594 274.404 291.482 274.266 291.482H217.379C217.241 291.482 217.129 291.594 217.129 291.732V295.53C217.129 295.667 217.241 295.779 217.379 295.779Z" fill="#3F3D56"/>
<path d="M297.188 206.257C297.164 218.319 292.621 229.936 284.452 238.824C276.283 247.712 265.078 253.229 253.042 254.288C241.005 255.348 229.006 251.875 219.405 244.551C209.804 237.227 203.294 226.583 201.156 214.711C199.017 202.839 201.405 190.598 207.85 180.394C214.294 170.191 224.329 162.763 235.982 159.571C247.635 156.379 260.062 157.653 270.821 163.144C281.58 168.635 289.892 177.945 294.123 189.244C294.229 189.527 294.332 189.811 294.432 190.098V190.1C294.879 191.359 295.272 192.642 295.612 193.948C296.662 197.967 297.191 202.103 297.188 206.257Z" fill="#3F3D56"/>
<path d="M243.133 173.44C240.943 172.258 238.512 171.591 236.025 171.489C233.538 171.388 231.06 171.854 228.781 172.854C226.775 173.726 224.662 175.29 223.992 178.114C226.7 176.519 230.204 179.039 230.901 183.081L230.738 183.126C230.37 185.926 231.192 188.975 232.782 190.711C232.9 189.928 233.192 189.181 233.636 188.524C234.079 187.867 234.664 187.317 235.347 186.914C236.516 186.147 237.808 185.59 238.7 184.272C239.757 182.709 240.026 180.426 240.446 178.343C240.866 176.26 241.663 174.021 243.133 173.44Z" fill="#83D983"/>
<path d="M227.978 197.269C227.228 198.393 226.227 199.099 225.328 199.977C224.291 200.919 223.61 202.189 223.401 203.573C223.287 204.552 223.463 205.546 223.439 206.535C223.414 207.524 223.084 208.637 222.41 208.883C221.346 209.267 220.534 207.294 219.44 207.156C218.572 207.048 217.789 208.413 218.041 209.597C218.293 210.78 219.476 211.304 220.155 210.531C220.77 211.561 220.336 213.428 219.413 213.744C219.316 214.393 219.219 215.039 219.124 215.687C216.79 214.058 214.433 212.401 212.449 210.015C210.242 207.384 208.873 204.155 208.518 200.741C208.261 197.999 208.643 194.862 207.381 192.751C206.372 191.062 204.639 190.689 203.08 190.795C202.796 190.814 202.509 190.846 202.225 190.881C203.144 188.124 204.312 185.456 205.714 182.91C206.031 182.774 206.326 182.591 206.588 182.367C208.039 181.137 208.683 178.649 209.861 176.927C209.937 176.816 210.015 176.708 210.096 176.603C211.301 175.033 212.914 174.225 214.473 173.474C217.925 171.801 221.476 170.107 225.12 170.339L224.083 170.439C222.873 173.822 221.662 177.206 220.45 180.589C220.266 181.107 220.08 181.627 219.893 182.148C219.205 184.072 218.496 186.12 218.601 188.274C218.664 189.549 219.108 190.911 219.952 191.349C220.74 191.754 221.601 191.257 222.361 190.765C222.683 190.56 223.003 190.354 223.325 190.146C224.481 189.403 225.761 188.641 226.982 189.138C228.1 189.592 228.925 191.108 229.082 192.743C229.226 194.332 228.838 195.924 227.978 197.269Z" fill="#83D983"/>
<path d="M234.853 220.367C231.477 218.292 228.101 216.217 224.725 214.142L224.782 213.995C222.684 214.793 221.812 218.517 222.159 221.563C222.506 224.609 223.682 227.331 224.276 230.299C225.077 234.36 224.775 238.561 223.4 242.467C227.839 237.495 231.768 232.091 235.127 226.336C235.596 225.611 235.954 224.82 236.188 223.988C236.435 223.103 236.347 222.157 235.94 221.332C235.663 220.925 235.29 220.593 234.853 220.367Z" fill="#83D983"/>
<path d="M221.529 182.618C221.133 183.468 221.072 184.435 221.358 185.328C221.691 186.047 222.295 186.606 223.039 186.882L224.904 187.805C225.525 188.112 226.194 188.422 226.826 188.17C227.589 187.865 228.118 186.671 227.982 185.562C227.836 184.383 227.091 183.571 226.402 182.88C225.438 181.913 224.474 180.946 223.51 179.979L222.967 180.644C222.379 181.216 221.893 181.884 221.529 182.618Z" fill="#83D983"/>
<path d="M287.189 195.229C288.028 195.426 288.867 195.623 289.706 195.82C289.56 198.65 288.155 201.268 286.271 202.216C285.486 202.611 284.612 202.757 283.962 203.495C283.375 204.165 283.077 205.208 282.804 206.205C282.324 207.945 281.845 209.685 281.366 211.425C280.852 213.301 280.191 215.384 278.854 216.06C277.706 216.641 276.394 215.93 275.511 214.738C274.629 213.547 274.09 211.944 273.568 210.382C273.6 212.085 272.807 213.755 271.684 214.347C270.558 214.938 269.188 214.403 268.435 213.082C267.894 212.133 267.669 210.882 267.139 209.92C266.608 208.958 265.496 208.407 264.916 209.31C264.535 209.91 264.583 210.828 264.394 211.59C264.298 212.096 264.048 212.56 263.676 212.917C263.304 213.274 262.831 213.506 262.32 213.582C261.851 213.571 261.389 213.465 260.963 213.271C260.536 213.076 260.153 212.797 259.838 212.45C258.181 210.757 257.101 208.584 256.755 206.243C256.52 205.12 256.55 203.958 256.842 202.849C257.175 201.798 257.979 200.987 258.777 201.187C259.302 200.079 258.266 198.609 257.332 198.739C256.395 198.869 255.661 199.871 254.893 200.641C254.127 201.411 253.055 201.971 252.283 201.206C252.292 201.351 252.271 201.497 252.221 201.634C252.171 201.771 252.093 201.896 251.992 202.001C251.891 202.107 251.769 202.19 251.634 202.246C251.5 202.302 251.355 202.33 251.209 202.327C250.696 202.18 250.219 201.928 249.809 201.587C248.042 200.487 245.798 201.217 244.542 203.297C245.327 199.963 246.477 196.137 248.889 195.353C249.874 195.031 250.949 195.296 251.88 194.74C253.528 193.753 253.861 190.027 252.438 188.49C252.619 189.943 252.584 191.64 251.815 192.635C251.046 193.629 249.433 192.98 249.53 191.511C249.508 191.717 249.422 191.912 249.282 192.066C249.143 192.221 248.958 192.327 248.754 192.37C248.551 192.414 248.338 192.391 248.148 192.307C247.958 192.222 247.799 192.08 247.695 191.9C247.183 191.121 247.227 189.849 247.589 188.919C247.963 188.077 248.5 187.317 249.168 186.682C250.453 185.306 251.758 183.915 253.247 183.05C254.738 182.185 256.46 181.894 257.954 182.753C258.742 183.207 259.435 183.963 260.239 184.363C260.431 184.483 260.646 184.562 260.87 184.597C261.094 184.632 261.323 184.622 261.543 184.567C261.762 184.512 261.969 184.413 262.15 184.277C262.331 184.141 262.483 183.97 262.597 183.774C263.195 182.726 262.913 181.169 263.135 179.859C263.533 177.543 265.853 176.459 267.139 177.989C266.178 177.743 265.184 178.878 265.065 180.253C264.943 181.629 265.639 183.018 266.57 183.434C268.135 184.126 269.667 182.385 270.85 180.775C272.084 179.089 273.32 177.403 274.558 175.719C274.756 175.432 274.978 175.163 275.222 174.914C275.609 174.537 276.126 174.321 276.667 174.31C277.209 174.298 277.734 174.493 278.137 174.854C279.387 175.873 279.975 177.962 281.001 179.399C282.49 181.488 284.717 181.996 286.791 182.402C288.336 182.701 289.883 183.003 291.43 183.307C292.462 185.222 293.362 187.206 294.124 189.243C291.286 190.535 288.879 192.612 287.189 195.229Z" fill="#83D983"/>
<path d="M295.613 193.948C295.296 194.881 295.122 195.857 295.098 196.842C293.772 195.226 293.561 192.197 294.432 190.1C294.879 191.359 295.272 192.642 295.613 193.948Z" fill="#83D983"/>
<path d="M292.185 227.741C291.026 230.092 289.677 232.345 288.152 234.478C287.178 234.062 286.13 234.805 285.218 235.502C284.265 236.231 283.12 236.942 282.143 236.277C281.144 235.596 280.822 233.691 281.139 232.181C281.503 230.787 282.139 229.48 283.012 228.333C283.824 227.122 284.693 225.866 285.822 225.396C286.953 224.926 288.407 225.59 288.737 227.195L289.538 227.168C289.089 226.552 289.324 225.277 289.928 225.052C290.624 224.79 291.227 225.744 291.639 226.587C291.823 226.968 292.01 227.352 292.185 227.741Z" fill="#83D983"/>
<path d="M261.499 216.327C259.777 216.436 258.412 214.319 257.506 212.237C256.599 210.155 255.772 207.774 254.218 206.714C253.33 206.109 252.318 206.025 251.355 205.732C250.809 205.594 250.303 205.329 249.88 204.957C249.457 204.585 249.129 204.118 248.923 203.595L247.831 203.154C246.303 203.917 244.903 204.913 243.683 206.107C242.289 207.585 241.42 209.481 241.211 211.501C241.003 213.683 241.773 216.117 243.213 216.937C244.351 217.585 245.676 217.177 246.828 217.77C248.268 218.511 249.123 220.664 249.447 222.79C249.77 224.915 249.688 227.125 249.92 229.274C250.151 231.424 250.789 233.661 252.11 234.763C253.762 236.141 256.187 234.996 256.929 232.486C257.292 231.255 257.28 229.866 257.552 228.588C258.031 226.338 259.323 224.669 260.348 222.823C261.374 220.977 262.181 218.47 261.499 216.327Z" fill="#83D983"/>
<path d="M244.48 194.215C244.641 194.363 244.791 194.522 244.929 194.691C245.072 194.937 245.145 195.217 245.14 195.501C245.135 195.785 245.053 196.062 244.901 196.303C245.109 196.291 245.312 196.237 245.497 196.143C245.682 196.049 245.846 195.917 245.978 195.757C246.292 195.4 246.568 195.011 246.803 194.597C246.913 194.455 246.991 194.291 247.033 194.117C247.075 193.942 247.08 193.761 247.046 193.585C246.965 193.353 246.772 193.254 246.637 193.08C246.45 192.739 246.323 192.369 246.26 191.985C246.185 191.626 246.011 191.295 245.758 191.028C245.505 190.762 245.183 190.571 244.827 190.478L244.913 190.495C244.766 190.582 244.65 190.712 244.582 190.868C244.513 191.024 244.495 191.198 244.53 191.365C244.582 191.702 244.799 191.982 244.778 192.326C244.747 192.821 244.251 193.053 244.221 193.547C244.216 193.795 244.309 194.035 244.48 194.215Z" fill="#83D983"/>
<path d="M241.53 185.812L241.537 185.81C241.59 185.762 241.639 185.71 241.684 185.654L241.53 185.812Z" fill="#83D983"/>
<path d="M242.046 188.133C242.253 187.952 242.406 187.717 242.489 187.455C242.571 187.193 242.58 186.913 242.514 186.647C242.389 186.084 241.946 185.706 241.538 185.81C241.419 185.93 241.272 186.018 241.11 186.066C240.948 186.113 240.777 186.119 240.612 186.082C240.36 186.017 240.083 185.85 239.864 186.04C239.738 186.182 239.651 186.353 239.609 186.537C239.527 186.785 239.446 187.034 239.365 187.282C239.327 187.371 239.317 187.47 239.337 187.565C239.352 187.603 239.377 187.636 239.409 187.662C239.442 187.687 239.48 187.704 239.52 187.71C240.007 187.854 240.493 187.997 240.979 188.14C241.147 188.217 241.329 188.256 241.514 188.255C241.698 188.254 241.88 188.212 242.046 188.133Z" fill="#83D983"/>
<path d="M278.763 220.18C278.538 219.813 278.313 219.445 278.089 219.078C277.868 218.652 277.566 218.274 277.2 217.964C277.119 217.896 277.026 217.846 276.926 217.815C276.825 217.784 276.72 217.774 276.616 217.784C276.511 217.795 276.41 217.826 276.318 217.876C276.225 217.926 276.144 217.994 276.079 218.076L276.106 218.286C276.708 218.93 277.118 219.729 277.291 220.593C277.342 220.969 277.324 221.357 277.369 221.734C277.374 221.909 277.413 222.081 277.484 222.241C277.556 222.401 277.658 222.545 277.786 222.665C278.14 222.901 278.555 222.553 278.807 222.128C279.032 221.78 279.134 221.365 279.094 220.952C279.038 220.675 278.925 220.412 278.763 220.18Z" fill="#83D983"/>
<path d="M282.29 220.658C282.333 220.314 282.305 219.965 282.208 219.632C282.192 219.182 282.311 218.737 282.551 218.356C282.789 217.996 282.97 217.601 283.086 217.185C283.135 216.996 283.126 216.796 283.06 216.612C282.986 216.445 282.806 216.369 282.702 216.501L282.923 216.643C282.625 216.59 282.318 216.605 282.026 216.687C281.859 216.75 281.71 216.853 281.591 216.986C281.473 217.12 281.388 217.279 281.345 217.452C281.308 217.722 281.249 217.988 281.167 218.247C281.035 218.518 280.779 218.608 280.619 218.845C280.509 219.056 280.454 219.291 280.458 219.528C280.462 219.765 280.525 219.998 280.641 220.205C280.843 220.544 281.163 220.795 281.54 220.911C281.811 221.008 282.166 221.013 282.29 220.658Z" fill="#83D983"/>
<path d="M288.571 222.55C288.668 222.804 288.799 223.044 288.96 223.263C289.26 223.566 289.669 223.38 290.034 223.306C290.365 223.254 290.704 223.292 291.015 223.417C291.326 223.541 291.597 223.748 291.8 224.014C291.659 223.309 291.35 222.649 290.9 222.089C290.45 221.528 289.872 221.084 289.214 220.793C288.359 220.497 287.459 220.357 286.554 220.377L286.4 220.417C286.794 221.561 288.03 221.535 288.571 222.55Z" fill="#83D983"/>
<path d="M261.97 224.89L261.972 224.895L262.017 224.808L261.97 224.89Z" fill="#83D983"/>
<path d="M261.017 226.731C260.809 227.107 260.63 227.499 260.482 227.903C260.286 228.557 260.156 229.229 260.095 229.908C260.046 230.295 260.032 230.789 260.274 230.977C260.344 231.023 260.428 231.042 260.511 231.031C260.594 231.02 260.67 230.979 260.724 230.916C260.859 230.774 260.969 230.61 261.051 230.432C261.527 229.612 261.898 228.735 262.152 227.822C262.418 226.853 262.355 225.823 261.972 224.895C261.654 225.507 261.335 226.119 261.017 226.731Z" fill="#83D983"/>
<path d="M251.825 177.682C251.977 177.83 252.168 177.93 252.376 177.97C252.583 178.011 252.798 177.99 252.994 177.91C253.4 177.733 253.772 177.487 254.094 177.184C254.361 176.987 254.588 176.741 254.761 176.458C254.857 176.289 254.918 176.103 254.941 175.911C254.965 175.718 254.95 175.523 254.898 175.336C254.823 175.157 254.704 175 254.552 174.88C254.4 174.76 254.219 174.68 254.027 174.649C253.488 174.489 252.948 174.33 252.408 174.17L252.798 173.818C252.397 173.603 251.952 174.003 251.701 174.497C251.54 174.82 251.428 175.165 251.368 175.521C251.282 175.893 251.279 176.279 251.358 176.652C251.437 177.025 251.597 177.376 251.825 177.682Z" fill="#83D983"/>
<path d="M261.356 174.488C261.508 174.655 261.718 174.759 261.944 174.777C262.17 174.795 262.394 174.727 262.571 174.586C262.724 174.472 262.851 174.327 262.943 174.16C263.036 173.994 263.092 173.81 263.109 173.62C263.147 173.196 262.937 172.725 262.637 172.688L262.706 172.291C262.128 172.187 261.417 172.166 261.108 172.867C261.004 173.135 260.971 173.426 261.015 173.71C261.058 173.995 261.176 174.263 261.356 174.488Z" fill="#83D983"/>
<path d="M347.498 145.567H149.429C149.294 145.564 149.164 145.508 149.069 145.411C148.975 145.314 148.921 145.184 148.921 145.049C148.921 144.913 148.975 144.783 149.069 144.686C149.164 144.589 149.294 144.533 149.429 144.53H347.498C347.634 144.533 347.763 144.589 347.858 144.686C347.953 144.783 348.006 144.913 348.006 145.049C348.006 145.184 347.953 145.314 347.858 145.411C347.763 145.508 347.634 145.564 347.498 145.567Z" fill="#CACACA"/>
<path d="M160.861 138.311C163.947 138.311 166.448 135.758 166.448 132.609C166.448 129.46 163.947 126.908 160.861 126.908C157.776 126.908 155.274 129.46 155.274 132.609C155.274 135.758 157.776 138.311 160.861 138.311Z" fill="#3F3D56"/>
<path d="M180.162 138.311C183.247 138.311 185.749 135.758 185.749 132.609C185.749 129.46 183.247 126.908 180.162 126.908C177.076 126.908 174.575 129.46 174.575 132.609C174.575 135.758 177.076 138.311 180.162 138.311Z" fill="#3F3D56"/>
<path d="M199.462 138.311C202.548 138.311 205.049 135.758 205.049 132.609C205.049 129.46 202.548 126.908 199.462 126.908C196.376 126.908 193.875 129.46 193.875 132.609C193.875 135.758 196.376 138.311 199.462 138.311Z" fill="#3F3D56"/>
<path d="M335.932 128.321H322.222C321.951 128.326 321.692 128.438 321.501 128.631C321.311 128.825 321.205 129.086 321.205 129.357C321.205 129.628 321.311 129.889 321.501 130.083C321.692 130.276 321.951 130.388 322.222 130.393H335.932C336.204 130.388 336.463 130.276 336.653 130.083C336.843 129.889 336.95 129.628 336.95 129.357C336.95 129.086 336.843 128.825 336.653 128.631C336.463 128.438 336.204 128.326 335.932 128.321Z" fill="#3F3D56"/>
<path d="M335.932 132.21H322.222C321.951 132.216 321.692 132.327 321.501 132.521C321.311 132.715 321.205 132.975 321.205 133.247C321.205 133.518 321.311 133.779 321.501 133.972C321.692 134.166 321.951 134.278 322.222 134.283H335.932C336.204 134.278 336.463 134.166 336.653 133.972C336.843 133.779 336.95 133.518 336.95 133.247C336.95 132.975 336.843 132.715 336.653 132.521C336.463 132.327 336.204 132.216 335.932 132.21Z" fill="#3F3D56"/>
<path d="M335.932 136.095H322.222C321.951 136.101 321.692 136.212 321.501 136.406C321.311 136.6 321.205 136.86 321.205 137.132C321.205 137.403 321.311 137.663 321.501 137.857C321.692 138.051 321.951 138.162 322.222 138.168H335.932C336.204 138.162 336.463 138.051 336.653 137.857C336.843 137.663 336.95 137.403 336.95 137.132C336.95 136.86 336.843 136.6 336.653 136.406C336.463 136.212 336.204 136.101 335.932 136.095Z" fill="#3F3D56"/>
<g opacity="0.35">
<path opacity="0.35" d="M352.746 208.652C355.934 207.265 349.468 206.457 342.133 206.192C334.799 205.926 325.925 205.941 321.238 205.185C316.704 204.455 317.038 203.156 316.657 201.979C316.276 200.802 314.533 199.595 307.459 199.333C298.644 199.007 284.107 200.262 277.453 199.509C271.243 198.806 274.934 196.601 265.879 196.516C260.709 196.468 254.048 197.195 248.294 197.37C244.216 197.547 240.13 197.334 236.092 196.735C233.288 196.277 231.335 195.695 228.179 195.29C219.893 194.227 203.681 194.584 189.212 195.947C174.743 197.31 162.34 199.544 155.345 201.757C148.35 203.97 146.418 206.148 148.047 207.995C149.088 209.175 151.75 210.278 158.208 210.752C170.289 211.639 191.796 210.112 204.279 210.919C211.236 211.369 214.322 212.483 220.426 213.093C226.984 213.749 236.585 213.783 246.017 213.768C265.656 213.735 285.797 213.534 306.335 213.165C314.914 213.01 323.902 212.81 333.03 212.074C342.158 211.339 351.469 209.92 353.395 208.591" fill="white"/>
</g>
</g>
<defs>
<clipPath id="clip0_202_392">
<rect width="424" height="300" fill="white"/>
</clipPath>
</defs>
</svg>
