<svg width="466" height="320" viewBox="0 0 466 320" fill="none" xmlns="http://www.w3.org/2000/svg">
<path d="M412.412 150.276H60.2461V318.989H412.412V150.276Z" fill="#E6E6E6"/>
<path d="M402.342 164.743H70.3164V305.506H402.342V164.743Z" fill="white"/>
<path d="M346.816 190.944H338.219V199.624H346.816V190.944Z" fill="#E6E6E6"/>
<path d="M117.486 190.944H108.888V199.624H117.486V190.944Z" fill="#83D983"/>
<path d="M137.299 215.808H108.64V244.742H137.299V215.808Z" fill="#E6E6E6"/>
<path d="M412.262 140.528H60.0962V155.633H412.262V140.528Z" fill="#83D983"/>
<path d="M71.2139 154.231C72.7454 154.231 73.9869 152.978 73.9869 151.432C73.9869 149.886 72.7454 148.632 71.2139 148.632C69.6824 148.632 68.4409 149.886 68.4409 151.432C68.4409 152.978 69.6824 154.231 71.2139 154.231Z" fill="white"/>
<path d="M81.7393 154.231C83.2708 154.231 84.5123 152.978 84.5123 151.432C84.5123 149.886 83.2708 148.632 81.7393 148.632C80.2078 148.632 78.9663 149.886 78.9663 151.432C78.9663 152.978 80.2078 154.231 81.7393 154.231Z" fill="white"/>
<path d="M92.2652 154.231C93.7966 154.231 95.0381 152.978 95.0381 151.432C95.0381 149.886 93.7966 148.632 92.2652 148.632C90.7337 148.632 89.4922 149.886 89.4922 151.432C89.4922 152.978 90.7337 154.231 92.2652 154.231Z" fill="white"/>
<path d="M466 318.989H0V320H466V318.989Z" fill="#E6E6E6"/>
<path d="M237.239 218.702H167.023V222.771H237.239V218.702Z" fill="#E6E6E6"/>
<path d="M275.452 233.546H167.023V237.615H275.452V233.546Z" fill="#83D983"/>
<path d="M255.39 247.53H167.023V251.599H255.39V247.53Z" fill="#E6E6E6"/>
<path d="M218.611 261.463H167.023V265.532H218.611V261.463Z" fill="#E6E6E6"/>
<path d="M244.882 275.395H167.023V279.464H244.882V275.395Z" fill="#E6E6E6"/>
<path d="M361.625 190.944H353.027V199.624H361.625V190.944Z" fill="#E6E6E6"/>
<path d="M376.432 190.944H367.834V199.624H376.432V190.944Z" fill="#E6E6E6"/>
<path opacity="0.997" d="M358.971 265.532C368.614 265.532 376.431 257.639 376.431 247.903C376.431 238.167 368.614 230.275 358.971 230.275C349.327 230.275 341.51 238.167 341.51 247.903C341.51 257.639 349.327 265.532 358.971 265.532Z" fill="#83D983"/>
<path d="M94.3456 47.7331C105.202 47.7331 114.003 38.8476 114.003 27.8868C114.003 16.926 105.202 8.04053 94.3456 8.04053C83.489 8.04053 74.688 16.926 74.688 27.8868C74.688 38.8476 83.489 47.7331 94.3456 47.7331Z" fill="#2F2E41"/>
<path d="M45.4253 197.694H36.8161L32.7212 164.177H45.4243L45.4253 197.694Z" fill="#FBC4AE"/>
<path d="M30.6705 195.211H47.2698V205.763H20.2188C20.2187 202.964 21.3199 200.28 23.28 198.302C25.2401 196.323 27.8985 195.211 30.6705 195.211Z" fill="#2F2E41"/>
<path d="M31.9892 192.845L23.7773 190.243L29.8098 157.024L41.9298 160.865L31.9892 192.845Z" fill="#FBC4AE"/>
<path d="M18.6432 186.016L34.4814 191.034L31.3519 201.102L5.54199 192.925C5.95296 191.603 6.61784 190.375 7.49868 189.312C8.37952 188.25 9.45906 187.373 10.6757 186.731C11.8923 186.09 13.2221 185.696 14.5893 185.574C15.9564 185.451 17.3341 185.601 18.6437 186.016L18.6432 186.016Z" fill="#2F2E41"/>
<path d="M34.7898 179.469C34.4137 179.469 34.0407 179.401 33.6886 179.267L27.3543 176.87C26.6434 176.599 26.0529 176.078 25.6902 175.404C25.3276 174.729 25.217 173.946 25.3787 173.196C26.9729 165.959 32.4062 141.321 35.3814 128.105C38.9097 112.43 90.3829 109.517 92.5723 109.401L92.7525 109.392L98.5427 116.735C100.635 123.524 99.9718 128.82 96.5716 132.476C86.6495 143.141 57.0262 136.523 53.4939 135.686L37.7495 177.416C37.52 178.02 37.1145 178.54 36.5863 178.906C36.0582 179.273 35.4323 179.469 34.7913 179.469H34.7898Z" fill="#2F2E41"/>
<path d="M43.9168 184.431C43.5407 184.431 43.1677 184.363 42.8156 184.229L36.4833 181.832C35.7723 181.56 35.1817 181.04 34.8191 180.365C34.4564 179.691 34.3459 178.907 34.5077 178.157C36.1019 170.92 41.5352 146.282 44.5104 133.067C48.0387 117.392 99.5119 114.479 101.701 114.363L101.881 114.353L107.67 121.698C109.762 128.488 109.099 133.784 105.699 137.44C95.7769 148.102 66.1531 141.487 62.6208 140.649L46.8744 182.377C46.645 182.981 46.2394 183.501 45.7113 183.868C45.1831 184.234 44.5572 184.431 43.9163 184.431L43.9168 184.431Z" fill="#2F2E41"/>
<path d="M25.5962 82.3481C25.8288 82.6623 26.0365 82.9945 26.2174 83.3416L60.8436 87.0245L65.8289 80.1246L77.1255 86.358L67.3355 103.101L24.8695 92.1694C23.798 93.224 22.434 93.9243 20.9588 94.1772C19.4835 94.43 17.967 94.2235 16.6108 93.5849C15.2547 92.9464 14.1232 91.9062 13.3669 90.6027C12.6106 89.2991 12.2654 87.794 12.377 86.2875C12.4886 84.781 13.0519 83.3445 13.9919 82.169C14.9319 80.9936 16.204 80.1349 17.6392 79.7072C19.0743 79.2795 20.6044 79.3031 22.0259 79.7747C23.4475 80.2464 24.6932 81.1438 25.5972 82.3476L25.5962 82.3481Z" fill="#FBC4AE"/>
<path d="M106.062 124.51C105.562 124.509 105.069 124.388 104.623 124.156C97.6995 120.602 84.217 114.446 71.7146 113.158C71.2867 113.116 70.8724 112.983 70.4981 112.77C70.1238 112.556 69.7979 112.266 69.5413 111.918C69.2797 111.566 69.0927 111.163 68.992 110.735C68.8914 110.307 68.8792 109.863 68.9562 109.43C70.0844 103.124 72.6721 87.0687 72.3388 74.2012C72.2406 70.2448 73.4788 66.3723 75.8496 63.2205C78.2204 60.0687 81.5829 57.825 85.3843 56.8584C87.6722 56.2489 89.996 55.7863 92.3417 55.4733C95.0387 55.1284 97.7782 55.4261 100.341 56.3424C102.903 57.2587 105.218 58.7681 107.098 60.7498C108.979 62.7315 110.374 65.1304 111.171 67.7543C111.969 70.3782 112.146 73.1541 111.69 75.8598C109.461 89.1947 107.213 107.82 109.166 120.821C109.256 121.404 109.184 122 108.959 122.544C108.733 123.088 108.363 123.559 107.889 123.904C107.359 124.296 106.72 124.508 106.062 124.51Z" fill="#CECED0"/>
<path d="M72.9799 90.5925C72.5483 90.5918 72.1214 90.5019 71.7256 90.3282L62.7054 86.3866C61.9371 86.0498 61.3325 85.419 61.0242 84.6327C60.716 83.8464 60.7292 82.9687 61.0611 82.1923L68.0336 65.9309C68.4478 64.9455 69.0501 64.0521 69.8063 63.3018C70.5624 62.5514 71.4576 61.9588 72.4406 61.5577C73.4236 61.1566 74.4752 60.9549 75.5354 60.9642C76.5956 60.9734 77.6437 61.1934 78.6197 61.6115C79.5957 62.0297 80.4805 62.6378 81.2238 63.4012C81.967 64.1646 82.554 65.0683 82.9513 66.0608C83.3485 67.0532 83.5483 68.1149 83.5392 69.1853C83.53 70.2557 83.3121 71.3138 82.8979 72.2992C82.8829 72.335 82.8676 72.3707 82.852 72.4063L75.8795 88.6682C75.6341 89.239 75.229 89.7251 74.714 90.0669C74.1989 90.4087 73.5963 90.5914 72.9799 90.5925Z" fill="#CECED0"/>
<path d="M93.6273 49.9416C103.151 49.9416 110.871 42.1473 110.871 32.5325C110.871 22.9178 103.151 15.1235 93.6273 15.1235C84.104 15.1235 76.3838 22.9178 76.3838 32.5325C76.3838 42.1473 84.104 49.9416 93.6273 49.9416Z" fill="#FBC4AE"/>
<path d="M76.0737 23.9776C84.2414 29.0114 93.4493 32.0746 102.981 32.9287L100.145 29.498C102.21 30.2688 104.383 30.7045 106.583 30.7886C107.685 30.8209 108.778 30.592 109.777 30.1202C110.775 29.6485 111.65 28.9472 112.331 28.0724C112.887 27.1645 113.217 26.1342 113.293 25.0695C113.37 24.0048 113.19 22.9372 112.77 21.9578C111.905 20.0035 110.56 18.3051 108.862 17.0241C105.852 14.62 102.299 13.0052 98.5208 12.3234C94.7425 11.6417 90.8558 11.9142 87.2072 13.1168C84.7043 13.8719 82.4627 15.3236 80.7392 17.3056C79.1045 19.3416 75.9576 21.1558 76.7945 23.6365L76.0737 23.9776Z" fill="#2F2E41"/>
<path d="M95.1689 9.31196C98.606 5.79222 102.765 3.07593 107.355 1.35434C110.267 0.117234 113.462 -0.283078 116.586 0.19761C119.666 0.823223 122.578 2.97396 123.437 6.02471C124.138 8.51907 123.414 11.205 122.324 13.5543C121.234 15.9036 119.778 18.0801 118.896 20.5159C117.997 23.0013 117.726 25.6742 118.109 28.2919C118.492 30.9097 119.517 33.3894 121.09 35.506C122.663 37.6226 124.735 39.3089 127.117 40.412C129.5 41.5151 132.117 42 134.732 41.8226C131.707 42.2324 128.918 43.6681 125.96 44.4317C123.002 45.1953 119.512 45.1442 117.314 43.0046C114.988 40.7412 114.942 37.0613 115.054 33.8023L115.555 19.2677C115.64 16.7971 115.713 14.2471 114.83 11.9402C113.947 9.63335 111.85 7.61451 109.401 7.63574C107.545 7.6514 105.903 8.78691 104.414 9.90624C102.926 11.0256 101.351 12.2197 99.5021 12.3865C97.6536 12.5532 95.5429 11.1736 95.681 9.30387" fill="#2F2E41"/>
<path d="M64.6367 120.038C63.4942 120.037 62.3662 119.779 61.334 119.285C60.3018 118.79 59.3911 118.071 58.6675 117.178C57.9439 116.286 57.4254 115.242 57.1493 114.123C56.8733 113.003 56.8465 111.836 57.0711 110.705C57.2956 109.574 57.7658 108.508 58.4478 107.582C59.1298 106.657 60.0066 105.895 61.0151 105.353C62.0235 104.811 63.1386 104.502 64.2798 104.447C65.421 104.392 66.5601 104.594 67.6149 105.037C67.9321 105.172 68.2397 105.33 68.5354 105.508L99.9465 91.2719L100.829 82.671L114.369 82.3052L114.279 96.624C114.263 98.283 113.717 99.8923 112.723 101.213C111.729 102.534 110.339 103.496 108.76 103.956L72.0281 114.51C71.9572 114.755 71.8737 114.996 71.7778 115.232C71.1885 116.653 70.1968 117.867 68.9272 118.722C67.6575 119.577 66.1662 120.035 64.6402 120.037L64.6367 120.038Z" fill="#FBC4AE"/>
<path d="M113.223 89.321C112.838 89.5178 112.417 89.6326 111.986 89.6586L102.175 90.2676C101.339 90.3185 100.517 90.0325 99.8899 89.4724C99.2624 88.9124 98.8806 88.1239 98.8282 87.28L97.7515 69.593C97.6225 67.4366 98.3466 65.3168 99.7648 63.6991C101.183 62.0814 103.179 61.0982 105.315 60.9656C107.451 60.8329 109.551 61.5616 111.155 62.9916C112.759 64.4216 113.735 66.4359 113.869 68.5919L114.946 86.2789C114.983 86.9002 114.84 87.519 114.534 88.0594C114.228 88.5998 113.773 89.0383 113.224 89.321H113.223Z" fill="#CECED0"/>
<path d="M93.4678 116.864H34.8704C34.3789 116.864 33.9805 117.267 33.9805 117.763V120.927C33.9805 121.423 34.3789 121.826 34.8704 121.826H93.4678C93.9593 121.826 94.3577 121.423 94.3577 120.927V117.763C94.3577 117.267 93.9593 116.864 93.4678 116.864Z" fill="#3F3D56"/>
<path d="M11.4648 117.219V82.4876C11.4663 81.2661 11.9476 80.0951 12.803 79.2314C13.6585 78.3677 14.8184 77.8818 16.0282 77.8804H78.5118C79.7217 77.8817 80.8816 78.3675 81.7371 79.2313C82.5927 80.095 83.0739 81.2661 83.0752 82.4876V117.219C83.0739 118.441 82.5927 119.612 81.7371 120.475C80.8816 121.339 79.7217 121.825 78.5118 121.826H16.0282C14.8184 121.825 13.6585 121.339 12.803 120.475C11.9476 119.612 11.4663 118.441 11.4648 117.219Z" fill="#3F3D56"/>
</svg>
