<svg width="130" height="130" viewBox="0 0 130 130" fill="none" xmlns="http://www.w3.org/2000/svg">
<path fill-rule="evenodd" clip-rule="evenodd" d="M65 130C100.899 130 130 100.899 130 65C130 29.1015 100.899 0 65 0C29.1015 0 0 29.1015 0 65C0 100.899 29.1015 130 65 130ZM80.8817 53.9785C80.8816 53.9816 80.8814 53.9848 80.8813 53.9879V53.9856V53.9692C80.8814 53.9723 80.8816 53.9754 80.8817 53.9785ZM80.2857 50.4753C80.7259 51.5875 80.929 52.7813 80.8817 53.9785C80.9303 55.1785 80.7276 56.3754 80.2869 57.4905C79.8451 58.6085 79.1742 59.6188 78.3184 60.4547L78.3253 60.4477C77.4184 61.2926 76.3552 61.9471 75.197 62.3734C74.0389 62.7997 72.8089 62.9893 71.578 62.9313H58.9623V45.0399H71.5572C72.7899 44.9788 74.0223 45.1662 75.183 45.5914C76.3436 46.0165 77.4094 46.6709 78.3184 47.5165L78.3207 47.5188C79.1746 48.3526 79.8443 49.3603 80.2857 50.4753ZM89.0505 60.8142C89.9104 58.6474 90.311 56.3217 90.2263 53.9879H90.2251C90.3088 51.6607 89.9099 49.3414 89.054 47.1798C88.1944 45.0088 86.893 43.0454 85.2346 41.4176L85.2438 41.427C83.5266 39.7834 81.502 38.5046 79.2892 37.666C77.0765 36.8274 74.7204 36.446 72.3598 36.5441H51.1116H51.1093H51.0607C50.3899 36.5441 49.8464 37.0947 49.8464 37.7742V62.9406H41.0172H41.0149H40.9733C40.6475 62.9462 40.3368 63.0812 40.1084 63.3165C39.8799 63.5519 39.7519 63.8688 39.7519 64.1988V70.1618V70.1642V70.2134C39.7519 70.5396 39.8799 70.8525 40.1076 71.0832C40.3354 71.3139 40.6443 71.4435 40.9663 71.4435H49.8464V76.1553H41.0172H41.0149H40.9663C40.2955 76.1553 39.7519 76.7059 39.7519 77.3854V82.5447V82.5471V82.5963C39.7519 82.9225 39.8799 83.2354 40.1076 83.4661C40.3354 83.6968 40.6443 83.8264 40.9663 83.8264H49.8464V91.4927V91.4951V91.5443C49.8464 91.8705 49.9743 92.1834 50.202 92.4141C50.4298 92.6448 50.7387 92.7744 51.0607 92.7744H57.7086C58.0345 92.7744 58.3473 92.6448 58.5797 92.4133C58.812 92.1819 58.9453 91.8673 58.9507 91.5373V83.8264H78.8597H78.862H78.9106C79.5814 83.8264 80.1249 83.2757 80.1249 82.5963V77.4369V77.4346V77.3854C80.1249 76.7059 79.5814 76.1553 78.9106 76.1553H58.9507V71.4435H72.3205C74.6847 71.5468 77.0453 71.1687 79.2627 70.3316C81.4801 69.4945 83.5092 68.2154 85.23 66.57L85.2346 66.5653C86.8905 64.9404 88.1905 62.9809 89.0505 60.8142Z" fill="white"/>
</svg>
