<svg width="20" height="20" viewBox="0 0 20 20" fill="none" xmlns="http://www.w3.org/2000/svg">
<circle cx="10" cy="10" r="9.5" stroke="#010101"/>
<path d="M9.192 11.906C9.192 11.5327 9.25267 11.206 9.374 10.926C9.50467 10.6367 9.65867 10.394 9.836 10.198C10.0227 10.002 10.2653 9.76867 10.564 9.498C10.9373 9.17133 11.2127 8.89133 11.39 8.658C11.5673 8.41533 11.656 8.126 11.656 7.79C11.656 7.33267 11.4787 6.96867 11.124 6.698C10.7693 6.418 10.2793 6.278 9.654 6.278C8.562 6.278 7.72667 6.64667 7.148 7.384L6.126 6.656C6.518 6.152 7.01733 5.76467 7.624 5.494C8.24 5.22333 8.94933 5.088 9.752 5.088C10.7693 5.088 11.5767 5.312 12.174 5.76C12.7713 6.19867 13.07 6.80533 13.07 7.58C13.07 7.96267 13.0047 8.30333 12.874 8.602C12.7527 8.89133 12.6033 9.134 12.426 9.33C12.2487 9.526 12.0107 9.75933 11.712 10.03C11.3293 10.3753 11.0447 10.6787 10.858 10.94C10.6807 11.2013 10.592 11.5233 10.592 11.906H9.192ZM9.906 15.084C9.64467 15.084 9.42533 15 9.248 14.832C9.08 14.6547 8.996 14.44 8.996 14.188C8.996 13.936 9.08 13.726 9.248 13.558C9.42533 13.3807 9.64467 13.292 9.906 13.292C10.1673 13.292 10.382 13.3807 10.55 13.558C10.718 13.726 10.802 13.936 10.802 14.188C10.802 14.44 10.7133 14.6547 10.536 14.832C10.368 15 10.158 15.084 9.906 15.084Z" fill="black"/>
</svg>
