<svg width="20" height="20" viewBox="0 0 20 20" fill="none" xmlns="http://www.w3.org/2000/svg">
<path d="M16 2H17C18.6569 2 20 3.34315 20 5V17C20 17.7956 19.6839 18.5587 19.1213 19.1213C18.5587 19.6839 17.7956 20 17 20H3C2.20435 20 1.44129 19.6839 0.87868 19.1213C0.31607 18.5587 0 17.7956 0 17L0 3C0 1.34315 1.34315 0 3 0H14C15.1046 0 16 0.895431 16 2ZM17 4C16.4477 4 16 4.44772 16 5V17C16 17.2652 16.1054 17.5196 16.2929 17.7071C16.4804 17.8946 16.7348 18 17 18C17.2652 18 17.5196 17.8946 17.7071 17.7071C17.8946 17.5196 18 17.2652 18 17V5C18 4.44772 17.5523 4 17 4ZM3 2C2.44772 2 2 2.44772 2 3V17C2 17.2652 2.10536 17.5196 2.29289 17.7071C2.48043 17.8946 2.73478 18 3 18H13.1507C13.6482 18 13.9987 17.4975 14 17V3C14 2.44772 13.5523 2 13 2H3ZM4 11C4 10.4477 4.44772 10 5 10H11C11.5523 10 12 10.4477 12 11C12 11.5523 11.5523 12 11 12H5C4.44772 12 4 11.5523 4 11ZM4 15C4 14.4477 4.44772 14 5 14H11C11.5523 14 12 14.4477 12 15C12 15.5523 11.5523 16 11 16H5C4.44772 16 4 15.5523 4 15ZM4 5C4 4.44772 4.44772 4 5 4H11C11.5523 4 12 4.44772 12 5V7C12 7.55228 11.5523 8 11 8H5C4.44772 8 4 7.55228 4 7V5Z" fill="#83D983"/>
</svg>
