<svg width="20" height="20" viewBox="0 0 20 20" fill="none" xmlns="http://www.w3.org/2000/svg">
<path d="M1.25 8.88867C0.918479 8.88867 0.600537 9.00574 0.366117 9.21411C0.131696 9.42248 0 9.7051 0 9.99978C0 10.2945 0.131696 10.5771 0.366117 10.7855C0.600537 10.9938 0.918479 11.1109 1.25 11.1109H18.75C19.0815 11.1109 19.3995 10.9938 19.6339 10.7855C19.8683 10.5771 20 10.2945 20 9.99978C20 9.7051 19.8683 9.42248 19.6339 9.21411C19.3995 9.00574 19.0815 8.88867 18.75 8.88867H1.25ZM0 14.4442C0 14.1495 0.131696 13.8669 0.366117 13.6586C0.600537 13.4502 0.918479 13.3331 1.25 13.3331H18.75C19.0815 13.3331 19.3995 13.4502 19.6339 13.6586C19.8683 13.8669 20 14.1495 20 14.4442C20 14.7389 19.8683 15.0215 19.6339 15.2299C19.3995 15.4383 19.0815 15.5553 18.75 15.5553H1.25C0.918479 15.5553 0.600537 15.4383 0.366117 15.2299C0.131696 15.0215 0 14.7389 0 14.4442ZM1.25 17.7776C0.918479 17.7776 0.600537 17.8946 0.366117 18.103C0.131696 18.3114 0 18.594 0 18.8887C0 19.1834 0.131696 19.466 0.366117 19.6743C0.600537 19.8827 0.918479 19.9998 1.25 19.9998H18.75C19.0815 19.9998 19.3995 19.8827 19.6339 19.6743C19.8683 19.466 20 19.1834 20 18.8887C20 18.594 19.8683 18.3114 19.6339 18.103C19.3995 17.8946 19.0815 17.7776 18.75 17.7776H1.25Z" fill="#83D983"/>
<path d="M13 4C13 5.65685 11.6569 7 10 7C8.34315 7 7 5.65685 7 4C7 2.34315 8.34315 1 10 1C11.6569 1 13 2.34315 13 4Z" fill="#83D983"/>
</svg>
