<svg width="22" height="20" viewBox="0 0 22 20" fill="none" xmlns="http://www.w3.org/2000/svg">
<path d="M19.8 0H3.3C1.4806 0 0 1.49556 0 3.33333V16.6667C0 18.5044 1.4806 20 3.3 20H19.8C21.0133 20 22 19.0033 22 17.7778V2.22222C22 0.996667 21.0133 0 19.8 0ZM3.3 17.7778C2.6928 17.7778 2.2 17.2789 2.2 16.6667V3.33333C2.2 2.72111 2.6928 2.22222 3.3 2.22222H19.8V5.55556H13.2C11.9867 5.55556 11 6.55222 11 7.77778V12.2222C11 13.4478 11.9867 14.4444 13.2 14.4444H19.8011V17.7778H3.3ZM19.8 7.77778V12.2222H13.2V7.77778H19.8Z" fill="#83D983"/>
</svg>
