<svg width="32" height="32" viewBox="0 0 32 32" fill="none" xmlns="http://www.w3.org/2000/svg">
<path d="M28.8978 24.7379C28.0407 23.9737 27.2902 23.0977 26.6667 22.1334C25.986 20.8024 25.5781 19.3487 25.4667 17.8579V13.4668C25.4726 11.1251 24.6232 8.86186 23.0781 7.1023C21.5329 5.34274 19.3984 4.20798 17.0756 3.91121V2.76455C17.0756 2.44982 16.9506 2.14799 16.7281 1.92545C16.5055 1.7029 16.2037 1.57788 15.889 1.57788C15.5742 1.57788 15.2724 1.7029 15.0499 1.92545C14.8273 2.14799 14.7023 2.44982 14.7023 2.76455V3.92899C12.4003 4.24715 10.2916 5.38877 8.76676 7.14242C7.24192 8.89606 6.40428 11.1429 6.40896 13.4668V17.8579C6.29763 19.3487 5.88965 20.8024 5.20896 22.1334C4.59641 23.0955 3.85802 23.9714 3.0134 24.7379C2.91859 24.8212 2.8426 24.9237 2.79049 25.0387C2.73838 25.1536 2.71134 25.2783 2.71118 25.4045V26.6134C2.71118 26.8492 2.80483 27.0753 2.97153 27.242C3.13823 27.4087 3.36432 27.5023 3.60007 27.5023H28.3112C28.5469 27.5023 28.773 27.4087 28.9397 27.242C29.1064 27.0753 29.2001 26.8492 29.2001 26.6134V25.4045C29.1999 25.2783 29.1729 25.1536 29.1208 25.0387C29.0687 24.9237 28.9927 24.8212 28.8978 24.7379ZM4.56007 25.7245C5.3871 24.9256 6.11527 24.0303 6.72896 23.0579C7.58639 21.4503 8.08668 19.6766 8.19563 17.8579V13.4668C8.16037 12.425 8.33511 11.3868 8.70944 10.414C9.08377 9.44122 9.65004 8.55369 10.3745 7.80428C11.099 7.05487 11.9669 6.45892 12.9265 6.0519C13.886 5.64489 14.9177 5.43513 15.9601 5.43513C17.0024 5.43513 18.0341 5.64489 18.9937 6.0519C19.9533 6.45892 20.8212 7.05487 21.5456 7.80428C22.2701 8.55369 22.8364 9.44122 23.2107 10.414C23.585 11.3868 23.7598 12.425 23.7245 13.4668V17.8579C23.8335 19.6766 24.3337 21.4503 25.1912 23.0579C25.8049 24.0303 26.533 24.9256 27.3601 25.7245H4.56007Z" fill="#005300"/>
<path d="M15.9999 30.471C16.5598 30.4581 17.0972 30.2476 17.5169 29.8767C17.9366 29.5058 18.2116 28.9984 18.2932 28.4443H13.6177C13.7017 29.0135 13.9895 29.5328 14.4277 29.9056C14.8659 30.2784 15.4246 30.4793 15.9999 30.471V30.471Z" fill="#005300"/>
</svg>
