<svg width="30" height="31" viewBox="0 0 30 31" fill="none" xmlns="http://www.w3.org/2000/svg">
<path d="M13.9999 30.471C14.5598 30.4581 15.0972 30.2476 15.5169 29.8767C15.9366 29.5058 16.2116 28.9984 16.2932 28.4443H11.6177C11.7017 29.0135 11.9895 29.5328 12.4277 29.9056C12.8659 30.2784 13.4246 30.4793 13.9999 30.471V30.471Z" fill="#005300"/>
<path d="M26.8978 24.7379C26.0407 23.9737 25.2902 23.0977 24.6667 22.1334C23.986 20.8024 23.5781 19.3487 23.4667 17.8579V13.4668C23.4631 12.9334 23.4156 12.4012 23.3245 11.8757C22.6249 11.7358 21.9525 11.4837 21.3334 11.129C21.5694 11.8889 21.6893 12.68 21.689 13.4757V17.8668C21.7979 19.6855 22.2982 21.4592 23.1556 23.0668C23.7693 24.0392 24.4975 24.9345 25.3245 25.7334H2.56007C3.3871 24.9345 4.11527 24.0392 4.72896 23.0668C5.58639 21.4592 6.08668 19.6855 6.19563 17.8668V13.4668C6.19095 12.438 6.38923 11.4185 6.77913 10.4665C7.16903 9.51454 7.74288 8.64881 8.46782 7.91891C9.19276 7.18902 10.0546 6.60929 11.0039 6.21291C11.9532 5.81654 12.9713 5.61132 14.0001 5.60899C15.5056 5.6102 16.9774 6.05544 18.2312 6.88899C18.093 6.38142 18.0154 5.85926 18.0001 5.33344V4.77344C17.0719 4.31687 16.0749 4.01654 15.049 3.88455V2.76455C15.049 2.44982 14.9239 2.14799 14.7014 1.92545C14.4789 1.7029 14.177 1.57788 13.8623 1.57788C13.5476 1.57788 13.2457 1.7029 13.0232 1.92545C12.8006 2.14799 12.6756 2.44982 12.6756 2.76455V3.92899C10.3785 4.25304 8.27614 5.39721 6.75671 7.15027C5.23729 8.90332 4.40338 11.1469 4.40896 13.4668V17.8579C4.29763 19.3487 3.88965 20.8024 3.20896 22.1334C2.59641 23.0955 1.85802 23.9714 1.0134 24.7379C0.918587 24.8212 0.842596 24.9237 0.790486 25.0387C0.738376 25.1536 0.711341 25.2783 0.711182 25.4045V26.6134C0.711182 26.8492 0.804832 27.0753 0.971531 27.242C1.13823 27.4087 1.36432 27.5023 1.60007 27.5023H26.3112C26.5469 27.5023 26.773 27.4087 26.9397 27.242C27.1064 27.0753 27.2001 26.8492 27.2001 26.6134V25.4045C27.1999 25.2783 27.1729 25.1536 27.1208 25.0387C27.0687 24.9237 26.9927 24.8212 26.8978 24.7379V24.7379Z" fill="#005300"/>
<path d="M24.6666 9.7778C27.1212 9.7778 29.1111 7.78796 29.1111 5.33336C29.1111 2.87876 27.1212 0.888916 24.6666 0.888916C22.212 0.888916 20.2222 2.87876 20.2222 5.33336C20.2222 7.78796 22.212 9.7778 24.6666 9.7778Z" fill="#DF2A43"/>
</svg>
