<svg width="144" height="128" viewBox="0 0 144 128" fill="none" xmlns="http://www.w3.org/2000/svg">
<path d="M93.7501 75C93.7501 72.8244 94.3952 70.6977 95.6039 68.8887C96.8126 67.0798 98.5306 65.6699 100.541 64.8373C102.551 64.0048 104.762 63.7869 106.896 64.2114C109.03 64.6358 110.99 65.6834 112.528 67.2218C114.067 68.7602 115.114 70.7202 115.539 72.854C115.963 74.9878 115.745 77.1995 114.913 79.2095C114.08 81.2195 112.67 82.9375 110.861 84.1462C109.052 85.3549 106.926 86 104.75 86C101.833 86 99.0348 84.8411 96.9719 82.7782C94.909 80.7153 93.7501 77.9174 93.7501 75ZM143.25 42V113.5C143.232 117.141 141.778 120.628 139.203 123.203C136.628 125.777 133.141 127.232 129.5 127.25H19.5001C14.4003 127.232 9.51447 125.198 5.90832 121.592C2.30216 117.986 0.268224 113.1 0.250107 108V22.8875C0.241065 19.9894 0.80294 17.1179 1.90365 14.4369C3.00437 11.7559 4.62236 9.31803 6.66525 7.26237C8.70814 5.20671 11.1359 3.57356 13.81 2.45616C16.484 1.33877 19.352 0.759014 22.2501 0.75H113C115.188 0.75 117.287 1.61919 118.834 3.16637C120.381 4.71354 121.25 6.81196 121.25 9C121.25 11.188 120.381 13.2865 118.834 14.8336C117.287 16.3808 115.188 17.25 113 17.25H22.2501C20.7577 17.2641 19.3286 17.8554 18.2626 18.9C17.2888 19.9453 16.7482 21.3214 16.7501 22.75V22.8875C16.8553 24.3585 17.5192 25.7335 18.6058 26.7306C19.6924 27.7277 21.1193 28.2713 22.5939 28.25H129.5C133.141 28.2681 136.628 29.7225 139.203 32.2973C141.778 34.872 143.232 38.3588 143.25 42ZM126.75 47.75C126.75 46.0931 125.407 44.75 123.75 44.75H22.5939C20.6216 44.7492 18.6576 44.495 16.7501 43.9938V108C16.7501 108.729 17.0398 109.429 17.5556 109.945C18.0713 110.46 18.7708 110.75 19.5001 110.75H123.75C125.407 110.75 126.75 109.407 126.75 107.75V47.75Z" fill="url(#paint0_linear_60_310)"/>
<defs>
<linearGradient id="paint0_linear_60_310" x1="-25.0024" y1="215.27" x2="112.485" y2="91.813" gradientUnits="userSpaceOnUse">
<stop stop-color="#447752"/>
<stop offset="1" stop-color="#79BE44"/>
</linearGradient>
</defs>
</svg>
