<svg width="18" height="20" viewBox="0 0 18 20" fill="none" xmlns="http://www.w3.org/2000/svg">
<path fill-rule="evenodd" clip-rule="evenodd" d="M14.625 2.22222H3.375C3.07663 2.22222 2.79048 2.33929 2.5795 2.54766C2.36853 2.75603 2.25 3.03865 2.25 3.33333V16.6667C2.25 16.9614 2.36853 17.244 2.5795 17.4523C2.79048 17.6607 3.07663 17.7778 3.375 17.7778H14.625C14.9234 17.7778 15.2095 17.6607 15.4205 17.4523C15.6315 17.244 15.75 16.9614 15.75 16.6667V3.33333C15.75 3.03865 15.6315 2.75603 15.4205 2.54766C15.2095 2.33929 14.9234 2.22222 14.625 2.22222ZM3.375 0C2.47989 0 1.62145 0.35119 0.988515 0.976311C0.355579 1.60143 0 2.44928 0 3.33333V16.6667C0 17.5507 0.355579 18.3986 0.988515 19.0237C1.62145 19.6488 2.47989 20 3.375 20H14.625C15.5201 20 16.3786 19.6488 17.0115 19.0237C17.6444 18.3986 18 17.5507 18 16.6667V3.33333C18 2.44928 17.6444 1.60143 17.0115 0.976311C16.3786 0.35119 15.5201 0 14.625 0H3.375Z" fill="#83D983"/>
<path d="M4.5 4.44434H13.5V6.66656H4.5V4.44434ZM4.5 8.88878H13.5V11.111H4.5V8.88878ZM4.5 13.3332H10.125V15.5554H4.5V13.3332Z" fill="#83D983"/>
</svg>
