<svg width="25" height="20" viewBox="0 0 25 20" fill="none" xmlns="http://www.w3.org/2000/svg">
<g clip-path="url(#clip0_42_236)">
<path d="M1 0C0.447715 0 0 0.447715 0 1V6.61905C0 7.17133 0.447715 7.61905 1 7.61905H5.41827L8.65385 13.2457V19C8.65385 19.5523 9.10156 20 9.65385 20H15.3462C15.8984 20 16.3462 19.5523 16.3462 19V13.381C16.3462 12.8287 15.8984 12.381 15.3462 12.381H10.3683L7.63269 7.61905H7.69231V4.7619H17.3077V6.61905C17.3077 7.17133 17.7554 7.61905 18.3077 7.61905H24C24.5523 7.61905 25 7.17133 25 6.61905V1C25 0.447715 24.5523 0 24 0H18.3077C17.7554 0 17.3077 0.447715 17.3077 1V2.85714H7.69231V1C7.69231 0.447716 7.24459 0 6.69231 0H1ZM1.92308 1.90476H5.76923V5.71429H1.92308V1.90476ZM19.2308 1.90476H23.0769V5.71429H19.2308V1.90476ZM10.9788 14.2857H14.4231V18.0952H10.5769V14.5124L10.9788 14.2857Z" fill="#83D983"/>
</g>
<defs>
<clipPath id="clip0_42_236">
<rect width="25" height="20" fill="white"/>
</clipPath>
</defs>
</svg>
