<svg width="27" height="20" viewBox="0 0 27 20" fill="none" xmlns="http://www.w3.org/2000/svg">
<path d="M15.625 7.75V4.375M19.5625 1.94725C17.848 1.37913 15.7892 1 13.375 1C10.9619 1 8.902 1.37913 7.1875 1.94725H19.5625ZM19.5625 1.94725C22.9611 3.07225 25.0019 4.93975 25.75 6.0625L22.9375 8.875L19.5625 6.625V1.94725ZM7.1875 1.94725C3.78888 3.07225 1.74813 4.93975 1 6.0625L3.8125 8.875L7.1875 6.625V1.94725ZM11.125 4.375V7.75V4.375ZM11.125 7.75L5.03425 13.8407C4.61226 14.2626 4.37513 14.8348 4.375 15.4315V16.75C4.375 17.3467 4.61205 17.919 5.03401 18.341C5.45597 18.7629 6.02826 19 6.625 19H20.125C20.7217 19 21.294 18.7629 21.716 18.341C22.1379 17.919 22.375 17.3467 22.375 16.75V15.4315C22.3749 14.8348 22.1377 14.2626 21.7157 13.8407L15.625 7.75H11.125ZM11.125 7.75H15.625H11.125Z" stroke="#83D983" stroke-width="2" stroke-linecap="round" stroke-linejoin="round"/>
<path d="M13.375 15.625C14.6176 15.625 15.625 14.6176 15.625 13.375C15.625 12.1324 14.6176 11.125 13.375 11.125C12.1324 11.125 11.125 12.1324 11.125 13.375C11.125 14.6176 12.1324 15.625 13.375 15.625Z" stroke="#83D983" stroke-width="2" stroke-linecap="round" stroke-linejoin="round"/>
</svg>
