<svg width="410" height="610" viewBox="0 0 410 610" fill="none" xmlns="http://www.w3.org/2000/svg">
<g clip-path="url(#clip0_112_3713)">
<path d="M410 382.027C410 476.4 353.826 509.351 284.532 509.351C215.238 509.351 159.064 476.4 159.064 382.027C159.064 287.654 284.532 167.597 284.532 167.597C284.532 167.597 410 287.654 410 382.027Z" fill="#A6C3A4"/>
<path d="M279.962 494.915L281.246 415.934L334.724 318.222L281.448 403.544L282.026 368.03L318.883 297.337L282.179 358.632V358.633L283.217 294.76L322.684 238.48L283.381 284.716L284.03 167.597L279.95 322.642L280.286 316.246L240.16 254.904L279.643 328.524L275.903 399.859L275.793 397.965L229.534 333.411L275.652 404.654L275.185 413.575L275.101 413.709L275.139 414.441L265.653 595.423H278.327L279.847 501.942L325.853 430.874L279.962 494.915Z" fill="#3F3D56"/>
<path d="M175.385 610C272.247 610 350.769 604.152 350.769 596.939C350.769 589.726 272.247 583.879 175.385 583.879C78.5224 583.879 0 589.726 0 596.939C0 604.152 78.5224 610 175.385 610Z" fill="#CECEC8"/>
<path d="M334.98 575.513C334.98 592.775 324.706 598.802 312.031 598.802C311.738 598.802 311.444 598.799 311.152 598.793C310.564 598.78 309.983 598.752 309.408 598.713C297.969 597.904 289.082 591.567 289.082 575.513C289.082 558.9 310.339 537.936 311.936 536.384L311.939 536.382C312 536.322 312.031 536.292 312.031 536.292C312.031 536.292 334.98 558.252 334.98 575.513Z" fill="#83D983"/>
<path d="M311.195 596.161L319.588 584.448L311.174 597.448L311.152 598.792C310.564 598.78 309.983 598.752 309.408 598.713L310.313 581.443L310.306 581.309L310.321 581.284L310.406 579.652L301.971 566.621L310.433 578.429L310.452 578.775L311.136 565.727L303.914 552.261L311.224 563.437L311.936 536.384L311.939 536.292V536.381L311.82 557.714L319.01 549.257L311.79 559.552L311.6 571.234L318.313 560.022L311.572 572.954L311.466 579.448L321.212 563.843L311.43 581.715L311.195 596.161Z" fill="#3F3D56"/>
<path d="M130.944 562.591L126.035 558.948C126.035 558.948 122.786 577.077 126.412 579.793C130.038 582.509 143.635 587.036 143.635 592.468C143.635 597.9 174.457 605.143 175.363 596.995C176.27 588.846 172.644 584.319 172.644 584.319C172.644 584.319 158.139 569.834 156.326 567.118C154.513 564.401 149.981 558.969 149.981 558.969L130.944 562.591Z" fill="#2F2E41"/>
<path d="M203.465 337.154C203.465 337.154 203.329 337.951 203.093 339.408C202.876 340.703 202.576 342.532 202.214 344.786C198.406 367.991 187.302 436.301 188.054 438.555C188.961 441.271 195.306 451.23 188.054 453.946C187.356 454.209 186.604 455.06 185.797 456.4C184.24 459.286 182.956 462.311 181.962 465.436C177.638 477.966 173.015 498.02 170.341 511.908C169.171 518.01 168.374 522.917 168.138 525.488C168.056 526.083 168.047 526.685 168.111 527.281C169.017 530.903 162.672 543.578 159.952 547.199C157.233 550.821 152.7 554.442 153.607 558.064C154.513 561.685 130.944 571.644 128.225 565.307C125.505 558.969 125.505 555.348 124.599 553.537C123.692 551.726 122.786 539.051 127.318 537.24C131.851 535.429 129.131 503.742 133.664 497.404C135.177 495.295 137.489 488.151 139.91 479.559C140.861 476.191 141.822 472.606 142.765 469.012C146.59 454.281 149.981 439.461 149.981 439.461L149.074 333.533L198.932 327.195L200.21 330.011L202.758 335.597L203.465 337.154Z" fill="#2F2E41"/>
<path d="M206.184 510.985C206.184 510.985 213.437 503.742 217.063 510.985C220.689 518.228 224.315 546.294 230.66 552.632C237.006 558.969 245.164 590.657 236.099 592.468C227.034 594.278 217.063 589.752 216.156 584.319C215.25 578.887 196.213 550.821 196.213 548.105C196.213 545.389 208.904 535.43 208.904 535.43L206.184 510.985Z" fill="#2F2E41"/>
<path d="M94.6836 287.359C94.6836 287.359 106.468 393.287 109.188 403.246C111.907 413.205 126.411 451.231 130.944 457.568C135.476 463.906 164.485 515.512 168.111 518.228C171.737 520.944 178.989 528.187 178.989 528.187C178.989 528.187 192.587 541.767 194.4 544.483C196.213 547.199 211.623 539.051 212.53 533.619C213.436 528.187 211.623 519.133 210.717 515.512C209.81 511.89 212.53 506.458 209.81 503.742C207.091 501.026 193.493 487.445 193.493 481.108C193.493 474.77 169.924 437.65 160.859 429.502C151.794 421.353 153.607 407.773 153.607 407.773V352.546L203.465 337.154C203.465 337.154 200.745 293.697 194.4 293.697C188.054 293.697 104.655 279.211 94.6836 287.359Z" fill="#2F2E41"/>
<path d="M168.11 136.163C184.632 136.163 198.025 122.786 198.025 106.286C198.025 89.7851 184.632 76.4087 168.11 76.4087C151.589 76.4087 138.195 89.7851 138.195 106.286C138.195 122.786 151.589 136.163 168.11 136.163Z" fill="#FBC4AE"/>
<path d="M158.14 129.825C158.14 129.825 154.514 143.406 149.981 147.027C145.448 150.649 161.766 166.04 161.766 166.04L192.587 167.851L198.026 150.649C198.026 150.649 188.054 130.731 190.774 118.056C193.493 105.381 158.14 129.825 158.14 129.825Z" fill="#FBC4AE"/>
<path d="M145.448 145.216C145.448 145.216 153.607 146.122 155.42 148.838C157.233 151.554 169.924 159.702 179.896 157.891C189.867 156.081 196.213 153.365 198.026 154.27C199.839 155.175 203.465 174.188 203.465 174.188L193.493 203.16L195.306 282.832L198.026 304.561C198.026 304.561 203.465 297.318 181.709 301.845C159.952 306.372 131.851 298.223 122.786 297.318C113.72 296.413 98.3098 293.696 97.4033 288.264C96.4968 282.832 100.123 262.914 100.123 262.914L114.627 202.254L123.692 169.661L145.448 145.216Z" fill="#DF2A43"/>
<path d="M154.023 141.13C154.023 141.13 146.355 137.068 143.635 140.69C140.915 144.311 106.468 149.743 106.468 152.459C106.468 155.175 99.2161 228.51 101.029 234.848C102.842 241.185 97.4031 248.428 97.4031 248.428L91.0575 275.589C91.0575 275.589 73.8338 327.195 81.0859 329.006C88.338 330.817 94.6835 329.006 97.4031 329.006C100.123 329.006 99.2161 294.602 106.468 285.548C113.72 276.495 123.692 253.86 125.505 249.334C127.318 244.807 149.981 182.336 149.074 175.093C148.168 167.851 154.023 141.13 154.023 141.13Z" fill="#CECED0"/>
<path d="M191.679 145.216C191.679 145.216 198.931 145.216 199.838 147.027C200.745 148.838 209.81 160.608 213.436 163.324C217.062 166.04 229.753 177.81 229.753 180.526C229.753 183.242 203.464 203.16 203.464 203.16C203.464 203.16 192.586 256.576 198.025 274.684C203.464 292.791 211.623 336.249 207.997 338.965C204.371 341.681 196.212 342.586 196.212 338.965C196.212 335.343 190.773 296.413 186.24 288.264C181.708 280.116 168.11 228.51 173.549 214.024C178.988 199.538 191.679 145.216 191.679 145.216Z" fill="#CECED0"/>
<path d="M72.0205 234.848C72.0205 234.848 71.114 262.914 81.0856 277.4C91.0572 291.886 97.4027 308.183 97.4027 308.183C97.4027 308.183 113.72 303.656 116.439 298.224C119.159 292.791 136.383 297.318 136.383 295.508C136.383 293.697 115.533 284.643 113.72 282.832C111.907 281.022 105.561 281.022 101.935 277.4C98.3092 273.779 97.4027 265.63 97.4027 265.63L93.7767 242.091L72.0205 234.848Z" fill="#FBC4AE"/>
<path d="M147.507 87.8638C145.206 87.655 142.832 87.4253 140.798 86.3298C136.241 83.8751 135.032 76.8849 138.502 73.046C139.458 72.0693 140.528 71.21 141.689 70.4866L148.579 65.8024C151.627 63.7307 154.746 61.625 158.301 60.6483C161.516 59.765 164.911 59.8558 168.239 60.0624C174.7 60.4634 181.2 61.2918 187.277 63.5196C193.353 65.7473 199.022 69.4743 202.702 74.7925C208.536 83.2236 208.616 94.5943 205.403 104.328C202.19 114.061 196.086 122.536 190.071 130.84L186.951 115.633C186.673 114.278 186.313 112.794 185.185 111.992C182.382 110 178.952 114.09 175.512 114.064C173.301 114.047 171.445 112.231 170.607 110.187C169.769 108.144 169.714 105.881 169.52 103.681C169.109 99.0225 167.479 92.54 163.061 89.9706C158.945 87.5764 152.134 88.2836 147.507 87.8638Z" fill="#2F2E41"/>
<path opacity="0.1" d="M149.186 337.885C149.186 337.885 152.247 426.333 154.06 429.049C155.873 431.765 154.06 337.607 154.06 337.607L149.186 337.885Z" fill="black"/>
<path d="M113.72 152.459H106.468C106.468 152.459 75.6466 194.106 79.2726 196.822C82.8986 199.539 79.2726 206.781 79.2726 206.781L72.0205 220.362C72.0205 220.362 62.9554 228.51 65.675 230.321C68.3945 232.132 72.0205 239.375 72.0205 239.375C72.0205 239.375 90.1507 236.659 95.5898 247.523L107.347 232.699L113.72 152.459Z" fill="#CECED0"/>
<path d="M196.212 230.321C196.212 230.321 176.269 231.227 153.606 216.741L130.944 206.782C130.944 206.782 111 175.999 109.187 181.431C107.374 186.864 111.907 197.728 111.907 197.728C111.907 197.728 84.5571 210.37 83.8461 212.04C83.1352 213.711 99.2158 209.498 99.2158 209.498C99.2158 209.498 96.4963 226.7 111.907 227.605C127.318 228.51 131.85 224.889 131.85 224.889C131.85 224.889 197.119 279.211 207.997 262.009C218.875 244.807 196.212 230.321 196.212 230.321Z" fill="#FBC4AE"/>
<path d="M219.781 176.904L229.752 180.526V207.687L233.378 213.119C233.378 213.119 232.472 223.983 229.752 226.699C227.033 229.416 221.594 228.51 223.407 234.848C224.496 238.98 224.804 243.278 224.313 247.523C224.313 247.523 207.996 268.346 207.09 265.63C206.183 262.914 193.492 229.416 191.679 229.416C189.866 229.416 209.809 176.904 209.809 176.904H219.781Z" fill="#CECED0"/>
<path d="M100.576 314.067C100.576 314.067 91.2028 305.014 95.8894 304.561C100.576 304.108 116.893 295.055 119.613 299.582C122.332 304.108 100.576 314.067 100.576 314.067Z" fill="#2F2E41"/>
</g>
<defs>
<clipPath id="clip0_112_3713">
<rect width="410" height="610" fill="white"/>
</clipPath>
</defs>
</svg>
