<svg width="1023" height="753" viewBox="0 0 1023 753" fill="none" xmlns="http://www.w3.org/2000/svg">
<g clip-path="url(#clip0_82_550)">
<path d="M466.5 753C674.435 753 843 584.435 843 376.5C843 168.565 674.435 0 466.5 0C258.565 0 90 168.565 90 376.5C90 584.435 258.565 753 466.5 753Z" fill="#F3F3EF"/>
<path d="M132.121 704.984C204.658 704.984 263.462 695.576 263.462 683.97C263.462 672.364 204.658 662.955 132.121 662.955C59.5836 662.955 0.780388 672.364 0.780388 683.97C0.780388 695.576 59.5836 704.984 132.121 704.984Z" fill="#F2F2F2"/>
<path d="M818.997 683.622C931.234 683.622 1022.22 669.064 1022.22 651.107C1022.22 633.149 931.234 618.591 818.997 618.591C706.76 618.591 615.774 633.149 615.774 651.107C615.774 669.064 706.76 683.622 818.997 683.622Z" fill="#F2F2F2"/>
<path d="M773.844 338.565C773.844 338.565 775.574 344.333 765.77 349.523C755.966 354.714 753.082 374.322 764.617 380.09C776.151 385.857 779.611 393.354 773.844 398.545C768.077 403.735 757.696 417.577 771.537 421.037C785.379 424.497 787.109 431.418 783.072 434.302C779.035 437.185 792.299 429.111 792.299 429.111C792.299 429.111 794.606 442.953 806.717 439.492C818.829 436.032 852.855 370.285 835.554 361.058C818.252 351.83 773.844 338.565 773.844 338.565Z" fill="#2F2E41"/>
<path d="M792.085 394.254C792.085 394.254 798.068 415.192 787.598 416.688C781.102 417.7 774.945 420.266 769.651 424.166L789.094 449.591H824.988L847.422 427.157C847.422 427.157 817.51 404.723 823.493 391.263C829.475 377.802 792.085 394.254 792.085 394.254Z" fill="#FBC4AE"/>
<path opacity="0.1" d="M792.973 394.254C792.973 394.254 798.955 415.192 788.486 416.688C781.989 417.7 775.832 420.266 770.539 424.166L789.981 449.591H825.876L848.31 427.157C848.31 427.157 818.398 404.723 824.38 391.263C830.363 377.802 792.973 394.254 792.973 394.254Z" fill="black"/>
<path d="M803.721 654.488L838.12 666.452L862.049 667.948L860.554 647.009L811.199 632.413L803.721 654.488Z" fill="#FBC4AE"/>
<path d="M847.841 650.001C847.841 650.001 847.841 670.939 850.832 670.939C853.824 670.939 894.205 666.452 906.169 670.939C918.134 675.426 936.081 658.974 927.108 650.001C918.134 641.027 903.497 627.567 894.364 630.558C885.231 633.549 847.841 641.027 847.841 641.027V650.001Z" fill="#464860"/>
<path d="M737.915 630.558C737.915 630.558 719.968 666.452 731.933 669.443C743.897 672.434 757.358 667.948 758.853 666.452C760.349 664.956 781.287 658.974 784.278 661.965C787.269 664.957 787.27 650.001 787.27 650.001L737.915 630.558Z" fill="#464860"/>
<path d="M740.447 581.203C740.447 581.203 712.031 620.089 732.969 630.558C753.907 641.027 854.112 641.027 861.59 630.558C869.068 620.089 872.059 587.186 861.59 584.194C851.121 581.203 740.447 581.203 740.447 581.203Z" fill="#2F2E41"/>
<path opacity="0.2" d="M752.871 581.203C752.871 581.203 724.455 620.089 745.393 630.558C766.331 641.027 866.536 641.027 874.014 630.558C881.492 620.089 884.483 587.186 874.014 584.194C863.545 581.203 752.871 581.203 752.871 581.203Z" fill="black"/>
<path d="M806.712 404.723C825.71 404.723 841.111 389.322 841.111 370.324C841.111 351.327 825.71 335.926 806.712 335.926C787.714 335.926 772.314 351.327 772.314 370.324C772.314 389.322 787.714 404.723 806.712 404.723Z" fill="#FBC4AE"/>
<path d="M752.871 424.608L782.783 418.626C782.783 418.626 790.261 442.555 814.19 438.068C838.12 433.582 844.102 418.626 844.102 418.626C844.102 418.626 862.049 426.104 863.545 426.104C865.04 426.104 884.483 433.582 884.483 438.068C884.483 442.555 862.049 487.423 862.049 487.423L865.04 568.185L754.367 565.194L761.845 485.927L752.871 424.608Z" fill="#83D983"/>
<path d="M736.419 463.051C736.419 463.051 727.446 542.318 733.428 548.3C739.411 554.282 763.34 570.734 763.34 570.734V552.787L751.375 530.353L763.34 478.007L736.419 463.051Z" fill="#FBC4AE"/>
<path d="M891.213 460.808C891.213 460.808 885.979 542.318 885.979 545.309C885.979 548.3 872.518 558.77 868.032 558.77C863.545 558.77 860.554 551.292 860.554 551.292L871.023 539.327L863.545 478.007L891.213 460.808Z" fill="#FBC4AE"/>
<path d="M877.005 575.221C877.005 575.221 944.307 537.831 945.802 575.221C947.298 612.611 911.404 627.567 911.404 627.567C911.404 627.567 818.677 655.372 814.938 645.208C811.199 635.045 803.721 618.593 809.704 617.098C815.686 615.602 823.164 612.611 826.155 615.602C829.146 618.593 866.536 593.168 866.536 593.168L877.005 575.221Z" fill="#2F2E41"/>
<path opacity="0.2" d="M895.989 570.734C895.989 570.734 882.528 576.716 878.041 581.203C873.555 585.69 854.112 593.168 854.112 593.168" stroke="black" stroke-width="1.77487" stroke-miterlimit="10"/>
<path d="M760.957 427.157L751.983 424.166C751.983 424.166 719.08 458.565 729.55 467.538C740.019 476.512 746.001 479.503 748.992 482.494C751.983 485.485 766.939 486.981 766.939 486.981L760.957 427.157Z" fill="#83D983"/>
<path d="M870.135 434.635L883.596 437.626C883.596 437.626 894.065 460.06 897.056 463.051C900.047 466.042 892.569 464.547 888.082 470.529C883.596 476.512 879.109 486.981 870.135 486.981C861.162 486.981 849.197 472.025 849.197 472.025L870.135 434.635Z" fill="#83D983"/>
<path d="M755.862 588.681C755.862 588.681 699.03 548.3 679.587 578.212C660.144 608.124 763.34 648.505 778.296 654.487C793.252 660.47 806.712 666.452 806.712 666.452C806.712 666.452 820.173 633.549 820.173 627.567C820.173 621.584 809.704 621.584 806.712 621.584C803.721 621.584 790.261 618.593 787.27 614.106C784.278 609.62 755.862 588.681 755.862 588.681Z" fill="#2F2E41"/>
<path opacity="0.2" d="M712.031 578.212C712.031 578.212 726.987 590.177 740.447 593.168C753.907 596.159 758.394 603.637 758.394 603.637" stroke="black" stroke-width="1.77487" stroke-miterlimit="10"/>
<path d="M745.545 521.978L746.74 585.302C746.78 587.394 747.644 589.385 749.146 590.842C750.647 592.299 752.663 593.103 754.755 593.08L872.598 591.756C874.605 591.733 876.53 590.949 877.982 589.563C879.435 588.176 880.307 586.29 880.423 584.285L883.999 522.285C884.062 521.208 883.903 520.129 883.533 519.114C883.164 518.1 882.591 517.172 881.85 516.387C881.109 515.602 880.215 514.977 879.224 514.549C878.233 514.122 877.165 513.902 876.085 513.902H753.471C752.418 513.902 751.375 514.112 750.403 514.519C749.432 514.927 748.551 515.525 747.813 516.277C747.075 517.029 746.495 517.92 746.105 518.899C745.716 519.878 745.525 520.925 745.545 521.978Z" fill="#474860"/>
<path d="M808.55 327.113C808.55 327.113 810.467 333.502 799.606 339.252C788.744 345.002 785.55 366.725 798.328 373.114C811.106 379.503 814.939 387.808 808.55 393.558C802.161 399.308 790.661 414.642 805.995 418.475C821.328 422.309 823.245 429.975 818.772 433.17C814.3 436.364 828.995 427.42 828.995 427.42C828.995 427.42 831.55 442.753 844.967 438.92C858.384 435.087 871.771 365.405 856.815 347.458C842.908 330.77 808.55 327.113 808.55 327.113Z" fill="#2F2E41"/>
<path d="M804.469 320.537C804.472 311.177 832.475 317.903 844.482 330.971C852.796 340.021 865.424 353.637 854.842 363.234C844.26 372.832 872.981 385.413 880.683 389.228C888.386 393.042 903.594 404.707 889.862 412.533C876.13 420.359 876.352 428.258 881.52 430.128C886.687 431.999 870.125 427.347 870.125 427.347C870.125 427.347 871.799 442.802 857.845 442.728C843.892 442.654 803.86 365.97 813.423 344.655C822.315 324.836 804.469 320.537 804.469 320.537Z" fill="#2F2E41"/>
<path d="M810.535 318.486C773.087 316.231 769.328 344.419 769.328 344.419C769.587 360.732 795.492 352.783 802.687 355.215C811.368 348.971 828.1 337.156 840.066 328.724C831.378 322.607 821.144 319.059 810.535 318.486Z" fill="#2F2E41"/>
<path d="M187.828 654.054L193.492 649.847C193.492 649.847 197.241 670.787 193.057 673.925C188.874 677.062 173.187 682.291 173.187 688.566C173.187 694.841 137.629 703.207 136.584 693.795C135.538 684.383 139.721 679.154 139.721 679.154C139.721 679.154 156.454 662.421 158.546 659.283C160.637 656.146 165.866 649.871 165.866 649.871L187.828 654.054Z" fill="#2F2E41"/>
<path d="M104.163 393.648C104.163 393.648 104.32 394.568 104.592 396.252C104.843 397.747 105.188 399.86 105.607 402.464C109.999 429.268 122.81 508.174 121.942 510.778C120.896 513.916 113.576 525.42 121.942 528.557C122.748 528.86 123.616 529.843 124.546 531.391C126.343 534.725 127.824 538.219 128.97 541.828C133.959 556.302 139.292 579.467 142.377 595.51C143.727 602.559 144.647 608.227 144.919 611.197C145.013 611.883 145.024 612.579 144.95 613.268C143.904 617.451 151.225 632.092 154.362 636.275C157.5 640.459 162.729 644.642 161.683 648.825C160.637 653.008 187.828 664.512 190.966 657.192C194.103 649.871 194.103 645.688 195.149 643.596C196.195 641.504 197.241 626.863 192.011 624.772C186.782 622.68 189.92 586.077 184.691 578.756C182.944 576.319 180.278 568.068 177.485 558.143C176.387 554.253 175.279 550.111 174.191 545.959C169.778 528.944 165.866 511.824 165.866 511.824L166.912 389.464L109.393 382.144L107.918 385.396L104.979 391.849L104.163 393.648Z" fill="#2F2E41"/>
<path d="M101.026 594.443C101.026 594.443 92.6596 586.077 88.4764 594.443C84.2931 602.81 80.1099 635.23 72.7892 642.55C65.4686 649.871 56.0563 686.474 66.5144 688.566C76.9725 690.658 88.4764 685.429 89.5222 679.154C90.568 672.879 112.53 640.459 112.53 637.321C112.53 634.184 97.8886 622.68 97.8886 622.68L101.026 594.443Z" fill="#2F2E41"/>
<path d="M229.661 336.128C229.661 336.128 216.065 458.488 212.928 469.992C209.79 481.496 193.057 525.42 187.828 532.74C182.599 540.061 149.133 599.672 144.95 602.81C140.767 605.947 132.4 614.313 132.4 614.313C132.4 614.313 116.713 630.001 114.622 633.138C112.53 636.275 94.7512 626.863 93.7054 620.588C92.6596 614.313 94.7512 603.855 95.797 599.672C96.8428 595.489 93.7054 589.214 96.8428 586.077C99.9802 582.939 115.667 567.252 115.667 559.931C115.667 552.611 142.858 509.733 153.317 500.32C163.775 490.908 161.683 475.221 161.683 475.221V411.427L104.163 393.648C104.163 393.648 107.301 343.449 114.622 343.449C121.942 343.449 218.157 326.716 229.661 336.128Z" fill="#2F2E41"/>
<path d="M144.95 161.478C164.01 161.478 179.462 146.027 179.462 126.966C179.462 107.906 164.01 92.4546 144.95 92.4546C125.89 92.4546 110.438 107.906 110.438 126.966C110.438 146.027 125.89 161.478 144.95 161.478Z" fill="#FBC4AE"/>
<path d="M156.454 154.157C156.454 154.157 160.637 169.845 165.866 174.028C171.095 178.211 152.271 195.99 152.271 195.99L116.713 198.081L110.438 178.211C110.438 178.211 121.942 155.203 118.805 140.562C115.667 125.921 156.454 154.157 156.454 154.157Z" fill="#FBC4AE"/>
<path d="M171.095 171.936C171.095 171.936 161.683 172.982 159.591 176.12C157.5 179.257 142.858 188.669 131.355 186.578C119.851 184.486 112.53 181.349 110.438 182.394C108.347 183.44 104.163 205.402 104.163 205.402L115.667 238.868L113.576 330.899L110.438 355.999C110.438 355.999 104.163 347.632 129.263 352.861C154.362 358.09 186.782 348.678 197.241 347.632C207.699 346.586 225.477 343.449 226.523 337.174C227.569 330.899 223.386 307.891 223.386 307.891L206.653 237.822L196.195 200.173L171.095 171.936Z" fill="#DF2A43"/>
<path d="M161.203 167.216C161.203 167.216 170.049 162.524 173.187 166.707C176.324 170.89 216.065 177.165 216.065 180.303C216.065 183.44 224.432 268.151 222.34 275.471C220.248 282.792 226.523 291.158 226.523 291.158L233.844 322.533C233.844 322.533 253.714 382.144 245.348 384.235C236.981 386.327 229.661 384.235 226.523 384.235C223.386 384.235 224.432 344.495 216.065 334.037C207.699 323.578 196.195 297.433 194.103 292.204C192.011 286.975 165.866 214.814 166.912 206.448C167.958 198.081 161.203 167.216 161.203 167.216Z" fill="#CECED0"/>
<path d="M117.759 171.936C117.759 171.936 109.393 171.936 108.347 174.028C107.301 176.12 96.8428 189.715 92.6596 192.852C88.4763 195.99 73.835 209.585 73.835 212.723C73.835 215.86 104.163 238.868 104.163 238.868C104.163 238.868 116.713 300.571 110.438 321.487C104.163 342.403 94.7512 392.602 98.9345 395.739C103.118 398.877 112.53 399.923 112.53 395.739C112.53 391.556 118.805 346.586 124.034 337.174C129.263 327.762 144.95 268.151 138.675 251.418C132.4 234.685 117.759 171.936 117.759 171.936Z" fill="#CECED0"/>
<path d="M255.806 275.471C255.806 275.471 256.852 307.891 245.348 324.624C233.844 341.357 226.523 360.182 226.523 360.182C226.523 360.182 207.699 354.953 204.561 348.678C201.424 342.403 181.553 347.632 181.553 345.54C181.553 343.449 205.607 332.991 207.699 330.899C209.79 328.807 217.111 328.807 221.294 324.624C225.477 320.441 226.523 311.029 226.523 311.029L230.706 283.838L255.806 275.471Z" fill="#FBC4AE"/>
<path d="M168.72 105.687C171.375 105.446 174.113 105.181 176.46 103.915C181.717 101.08 183.112 93.0051 179.109 88.5708C178.006 87.4425 176.771 86.45 175.432 85.6144L167.483 80.2035C163.967 77.8104 160.368 75.3781 156.267 74.2499C152.558 73.2296 148.641 73.3344 144.802 73.5731C137.348 74.0363 129.849 74.9932 122.839 77.5666C115.828 80.1399 109.289 84.445 105.043 90.5882C98.3126 100.327 98.2201 113.462 101.927 124.705C105.634 135.948 112.676 145.738 119.615 155.33L123.215 137.764C123.536 136.199 123.95 134.484 125.252 133.558C128.486 131.257 132.442 135.982 136.412 135.951C138.962 135.932 141.104 133.834 142.07 131.474C143.037 129.113 143.101 126.499 143.324 123.958C143.798 118.577 145.679 111.089 150.775 108.121C155.524 105.355 163.382 106.172 168.72 105.687Z" fill="#2F2E41"/>
<path opacity="0.1" d="M166.784 394.492C166.784 394.492 163.252 496.66 161.16 499.797C159.068 502.935 161.16 394.171 161.16 394.171L166.784 394.492Z" fill="black"/>
<path d="M207.699 180.303H216.065C216.065 180.303 251.623 228.41 247.439 231.548C243.256 234.685 247.439 243.052 247.439 243.052L255.806 258.739C255.806 258.739 266.264 268.151 263.126 270.243C259.989 272.334 255.806 280.701 255.806 280.701C255.806 280.701 234.89 277.563 228.615 290.113L215.051 272.989L207.699 180.303Z" fill="#CECED0"/>
<path d="M210.656 195.776L181.947 207.632L204.039 261.131L232.748 249.276L210.656 195.776Z" fill="#464860"/>
<path d="M207.291 227.154C210.462 225.845 212.057 222.422 210.854 219.509C209.651 216.596 206.106 215.296 202.935 216.605C199.763 217.915 198.168 221.338 199.371 224.251C200.574 227.164 204.12 228.464 207.291 227.154Z" fill="#DF2A43"/>
<path d="M186.782 263.967C186.782 263.967 111.484 326.716 98.9344 306.846C86.3847 286.975 112.53 270.242 112.53 270.242C112.53 270.242 135.538 271.288 161.683 254.555L187.828 243.051C187.828 243.051 211.697 208.975 219.83 221.951C227.964 234.927 205.946 257.511 186.782 263.967Z" fill="#FBC4AE"/>
<path d="M85.3389 208.54L73.835 212.723V244.097L69.6518 250.372C69.6518 250.372 70.6976 262.922 73.835 266.059C76.9725 269.197 83.2473 268.151 81.1557 275.472C79.8986 280.244 79.5439 285.21 80.1099 290.113C80.1099 290.113 98.9345 314.167 99.9803 311.029C101.026 307.892 115.667 269.197 117.759 269.197C119.851 269.197 96.8428 208.54 96.8428 208.54H85.3389Z" fill="#CECED0"/>
<path d="M222.863 366.98C222.863 366.98 233.676 356.521 228.27 355.999C222.863 355.476 204.038 345.018 200.901 350.247C197.763 355.476 222.863 366.98 222.863 366.98Z" fill="#2F2E41"/>
</g>
<defs>
<clipPath id="clip0_82_550">
<rect width="1021.86" height="753" fill="white" transform="translate(0.570511)"/>
</clipPath>
</defs>
</svg>
