<svg width="166" height="50" viewBox="0 0 166 50" fill="none" xmlns="http://www.w3.org/2000/svg">
<path fill-rule="evenodd" clip-rule="evenodd" d="M46.0613 13.4009C44.1026 14.055 39.7213 13.5943 37.7622 14.2484C45.1871 20.9724 42.3808 31.4553 38.1025 35.0506C44.6455 35.5225 50.8533 30.3992 49.8057 21.5373C48.5577 18.8257 47.3093 16.1129 46.0613 13.4009Z" fill="url(#paint0_linear_206_709)"/>
<path fill-rule="evenodd" clip-rule="evenodd" d="M26.0215 48.2462C26.1884 46.1564 28.3029 42.2263 28.4699 40.1361C19.4995 44.491 11.0871 37.7964 9.48724 32.3896C6.52174 38.3432 8.75895 46.1491 17.1962 48.6025C20.1381 48.4836 23.0792 48.3651 26.0215 48.2462Z" fill="url(#paint1_linear_206_709)"/>
<path fill-rule="evenodd" clip-rule="evenodd" d="M5.01758 11.3422C6.6162 12.6667 8.60192 16.6658 10.2001 17.9894C11.7545 8.0037 21.9445 4.74493 27.2301 6.46588C24.0877 0.608874 16.4959 -1.93894 9.72847 3.74355C8.15774 6.27586 6.58702 8.80902 5.01758 11.3422Z" fill="url(#paint2_linear_206_709)"/>
<path fill-rule="evenodd" clip-rule="evenodd" d="M26.7182 34.0859C28.7628 44.353 22.7099 49.64 14.752 47.8199C35.6216 55.3048 49.2238 39.7831 43.7756 27.5007C38.3266 15.218 23.5918 22.8705 26.7182 34.0859Z" fill="url(#paint3_linear_206_709)"/>
<path fill-rule="evenodd" clip-rule="evenodd" d="M16.0947 19.9482C6.6197 15.8458 5.76482 7.77704 11.7469 2.13721C-6.13966 15.3882 -1.27041 35.5833 11.7671 37.9751C24.8045 40.3656 26.9538 23.6805 16.0947 19.9482Z" fill="url(#paint4_linear_206_709)"/>
<path fill-rule="evenodd" clip-rule="evenodd" d="M20.3768 4.79913C11.3585 14.6694 24.0045 25.5173 32.9572 18.2375C41.4692 12.3409 48.6066 15.9655 50.0438 24.1329C48.7375 1.66531 29.3961 -5.07242 20.3768 4.79913Z" fill="url(#paint5_linear_206_709)"/>
<path d="M65.2606 34.0166V18.9479H60.7935V15.5294L73.7317 15.5294V18.9479H69.2646V34.0166H65.2606Z" fill="#005300"/>
<path d="M83.5375 29.3401C83.5375 28.5197 82.9927 27.7539 81.7397 27.7539H79.942V30.9263H81.7397C82.9654 30.9263 83.5375 30.0785 83.5375 29.3401ZM82.0666 19.7137C85.2535 19.7137 87.2147 20.9443 87.2147 23.5971C87.2147 24.9918 86.5065 25.949 85.3352 26.4959C86.8333 27.0429 87.7594 28.1368 87.7594 29.805C87.7594 32.8133 84.9539 34.0166 81.767 34.0166H76.0469V24.691V19.7137H82.0666ZM79.942 25.1012H81.3311C82.6386 25.1012 83.374 24.4995 83.374 23.6518C83.374 22.804 82.802 22.3117 81.4673 22.3117H79.942V25.1012Z" fill="#005300"/>
<path d="M90.4287 28.1915V25.402C90.4287 21.4639 93.0164 19.3581 96.2305 19.3581C99.4446 19.3581 102.06 21.628 102.06 24.8824V28H94.2966V28.1915C94.2966 30.1332 95.141 31.063 96.8025 31.063C98.1644 31.063 99.4446 30.7895 100.698 30.3793L101.46 33.5243C99.9077 34.0986 98.7092 34.3721 96.8025 34.3721C92.9891 34.3721 90.4287 32.2116 90.4287 28.1915ZM94.2966 25.2652H98.1644V24.8824C98.1644 23.6517 97.4562 22.6672 96.2305 22.6672C95.0865 22.6672 94.2966 23.6244 94.2966 24.8824V25.2652Z" fill="#005300"/>
<path d="M103.694 34.0166L105.546 24.8551C106.145 21.9288 107.507 19.7137 110.858 19.7137H116.087V34.0166H112.192V22.9407H111.402C110.476 22.9407 109.823 23.7065 109.523 25.1285L107.698 34.0166H103.694Z" fill="#005300"/>
<path d="M131.613 19.7137V34.0166H127.773V28.7385C127.773 28.1095 127.854 26.7694 127.909 25.949L122.897 34.0166H119.628V19.7137H123.469V25.1012C123.469 25.7029 123.387 27.0156 123.333 27.8086L128.372 19.7137H131.613Z" fill="#005300"/>
<path d="M135.372 28.8753L134.065 19.7138H137.933L139.213 28.6018C139.431 30.0239 139.894 30.7076 140.82 30.7076H141.474L142.836 19.7138H146.731L144.034 39.7871H140.221L141.011 34.0167H140.684C137.334 34.0167 135.808 31.8289 135.372 28.8753Z" fill="#005300"/>
<path d="M149.809 19.7137H154.685L157.082 27.3437L159.506 19.7137H164.381L165.798 34.0166H161.848L161.113 25.0739L159.015 31.61H155.175L153.05 25.0465L152.315 34.0166H148.365L149.809 19.7137Z" fill="#005300"/>
<defs>
<linearGradient id="paint0_linear_206_709" x1="37.7623" y1="24.2407" x2="49.9217" y2="24.2407" gradientUnits="userSpaceOnUse">
<stop stop-color="#08321A"/>
<stop offset="1" stop-color="#3F7123"/>
</linearGradient>
<linearGradient id="paint1_linear_206_709" x1="8.24143" y1="40.4962" x2="28.4698" y2="40.4962" gradientUnits="userSpaceOnUse">
<stop stop-color="#08321A"/>
<stop offset="1" stop-color="#3F7123"/>
</linearGradient>
<linearGradient id="paint2_linear_206_709" x1="5.01775" y1="9.2739" x2="27.2301" y2="9.2739" gradientUnits="userSpaceOnUse">
<stop stop-color="#08321A"/>
<stop offset="1" stop-color="#3F7123"/>
</linearGradient>
<linearGradient id="paint3_linear_206_709" x1="20.9094" y1="49.2602" x2="46.7721" y2="20.9251" gradientUnits="userSpaceOnUse">
<stop stop-color="#447752"/>
<stop offset="1" stop-color="#79BE44"/>
</linearGradient>
<linearGradient id="paint4_linear_206_709" x1="3.03171" y1="32.9426" x2="28.8944" y2="4.60745" gradientUnits="userSpaceOnUse">
<stop stop-color="#447752"/>
<stop offset="1" stop-color="#79BE44"/>
</linearGradient>
<linearGradient id="paint5_linear_206_709" x1="11.49" y1="40.6635" x2="37.3526" y2="12.3284" gradientUnits="userSpaceOnUse">
<stop stop-color="#447752"/>
<stop offset="1" stop-color="#79BE44"/>
</linearGradient>
</defs>
</svg>
