<svg width="166" height="49" viewBox="0 0 166 49" fill="none" xmlns="http://www.w3.org/2000/svg">
<path fill-rule="evenodd" clip-rule="evenodd" d="M46.0614 12.7649C44.1027 13.4059 39.7214 12.9545 37.7623 13.5955C45.1872 20.185 42.3809 30.4583 38.1026 33.9817C44.6456 34.444 50.8534 29.4233 49.8058 20.7385C48.5578 18.0812 47.3094 15.4226 46.0614 12.7649Z" fill="url(#paint0_linear_122_5429)"/>
<path fill-rule="evenodd" clip-rule="evenodd" d="M26.0217 46.9134C26.1887 44.8654 28.3032 41.0139 28.4701 38.9655C19.4998 43.2334 11.0874 36.6726 9.48748 31.374C6.52199 37.2085 8.7592 44.8583 17.1965 47.2626C20.1384 47.1461 23.0794 47.03 26.0217 46.9134Z" fill="url(#paint1_linear_122_5429)"/>
<path fill-rule="evenodd" clip-rule="evenodd" d="M5.01776 10.7474C6.61638 12.0454 8.60211 15.9645 10.2003 17.2617C11.7547 7.47565 21.9447 4.28205 27.2302 5.96858C24.0879 0.228718 16.4961 -2.26814 9.72865 3.3007C8.15793 5.78236 6.5872 8.26486 5.01776 10.7474Z" fill="url(#paint2_linear_122_5429)"/>
<path fill-rule="evenodd" clip-rule="evenodd" d="M26.7183 33.0367C28.7628 43.0984 22.7099 48.2796 14.752 46.496C35.6216 53.8312 49.2239 38.6199 43.7757 26.5832C38.3266 14.5461 23.5918 22.0455 26.7183 33.0367Z" fill="url(#paint3_linear_122_5429)"/>
<path fill-rule="evenodd" clip-rule="evenodd" d="M16.0948 19.1816C6.61983 15.1612 5.76494 7.25385 11.747 1.72681C-6.13954 14.7128 -1.27029 34.5039 11.7672 36.8479C24.8046 39.1907 26.9539 22.8393 16.0948 19.1816Z" fill="url(#paint4_linear_122_5429)"/>
<path fill-rule="evenodd" clip-rule="evenodd" d="M20.377 4.33517C11.3586 14.008 24.0047 24.639 32.9574 17.5048C41.4694 11.7261 48.6067 15.2782 50.044 23.2823C48.7376 1.26403 29.3962 -5.33895 20.377 4.33517Z" fill="url(#paint5_linear_122_5429)"/>
<path d="M65.2606 31.1174V16.3501H60.7934V13H73.7317V16.3501H69.2646V31.1174H65.2606Z" fill="white"/>
<path d="M83.5376 26.5345C83.5376 25.7305 82.9928 24.98 81.7398 24.98H79.9421V28.0889H81.7398C82.9656 28.0889 83.5376 27.2581 83.5376 26.5345ZM82.0667 17.1006C85.2536 17.1006 87.2148 18.3066 87.2148 20.9063C87.2148 22.2731 86.5066 23.2112 85.3353 23.7472C86.8334 24.2832 87.7595 25.3552 87.7595 26.9901C87.7595 29.9382 84.954 31.1174 81.7671 31.1174H76.047V21.9783V17.1006H82.0667ZM79.9421 22.3803H81.3312C82.6387 22.3803 83.3741 21.7907 83.3741 20.9599C83.3741 20.1291 82.8021 19.6466 81.4674 19.6466H79.9421V22.3803Z" fill="white"/>
<path d="M90.4289 25.4088V22.6751C90.4289 18.8158 93.0165 16.7521 96.2307 16.7521C99.4448 16.7521 102.06 18.9766 102.06 22.1659V25.2212H94.2968V25.4088C94.2968 27.3117 95.1411 28.2229 96.8027 28.2229C98.1646 28.2229 99.4448 27.9549 100.698 27.5529L101.46 30.635C99.9079 31.1978 98.7094 31.4658 96.8027 31.4658C92.9893 31.4658 90.4289 29.3485 90.4289 25.4088ZM94.2968 22.5411H98.1646V22.1659C98.1646 20.9599 97.4564 19.995 96.2307 19.995C95.0867 19.995 94.2968 20.9331 94.2968 22.1659V22.5411Z" fill="white"/>
<path d="M103.694 31.1174L105.546 22.1391C106.146 19.2714 107.507 17.1006 110.858 17.1006H116.088V31.1174H112.192V20.2631H111.403C110.476 20.2631 109.823 21.0135 109.523 22.4071L107.698 31.1174H103.694Z" fill="white"/>
<path d="M131.613 17.1006V31.1174H127.773V25.9449C127.773 25.3284 127.855 24.0152 127.909 23.2112L122.897 31.1174H119.629V17.1006H123.469V22.3803C123.469 22.97 123.387 24.2564 123.333 25.0336L128.372 17.1006H131.613Z" fill="white"/>
<path d="M135.372 26.0789L134.065 17.1006H137.933L139.213 25.8109C139.431 27.2045 139.894 27.8746 140.82 27.8746H141.474L142.836 17.1006H146.731L144.034 36.7725H140.221L141.011 31.1175H140.684C137.334 31.1175 135.808 28.9734 135.372 26.0789Z" fill="white"/>
<path d="M149.809 17.1006H154.684L157.081 24.578L159.506 17.1006H164.381L165.798 31.1174L161.848 31.1174L161.113 22.3535L159.015 28.759H155.175L153.05 22.3267L152.315 31.1174H148.365L149.809 17.1006Z" fill="white"/>
<defs>
<linearGradient id="paint0_linear_122_5429" x1="37.7624" y1="23.3879" x2="49.9218" y2="23.3879" gradientUnits="userSpaceOnUse">
<stop stop-color="#5C5C5C"/>
<stop offset="1" stop-color="#A1A2A0"/>
</linearGradient>
<linearGradient id="paint1_linear_122_5429" x1="8.24209" y1="39.3183" x2="28.4697" y2="39.3183" gradientUnits="userSpaceOnUse">
<stop stop-color="#5C5C5C"/>
<stop offset="1" stop-color="#A1A2A0"/>
</linearGradient>
<linearGradient id="paint2_linear_122_5429" x1="5.01792" y1="8.72053" x2="27.2298" y2="8.72053" gradientUnits="userSpaceOnUse">
<stop stop-color="#5C5C5C"/>
<stop offset="1" stop-color="#A1A2A0"/>
</linearGradient>
<linearGradient id="paint3_linear_122_5429" x1="20.9094" y1="47.9074" x2="46.2032" y2="19.6301" gradientUnits="userSpaceOnUse">
<stop stop-color="#A6A9A7"/>
<stop offset="1" stop-color="#E8EAE6"/>
</linearGradient>
<linearGradient id="paint4_linear_122_5429" x1="4.76722" y1="36.4347" x2="34.5404" y2="16.4141" gradientUnits="userSpaceOnUse">
<stop stop-color="#A6A9A7"/>
<stop offset="1" stop-color="#E8EAE6"/>
</linearGradient>
<linearGradient id="paint5_linear_122_5429" x1="11.4901" y1="39.4823" x2="36.7838" y2="11.2049" gradientUnits="userSpaceOnUse">
<stop stop-color="#747E77"/>
<stop offset="1" stop-color="#FDFFFC"/>
</linearGradient>
</defs>
</svg>
