<svg width="166" height="50" viewBox="0 0 166 50" fill="none" xmlns="http://www.w3.org/2000/svg">
<path fill-rule="evenodd" clip-rule="evenodd" d="M46.0613 13.0254C44.1026 13.6795 39.7213 13.2189 37.7622 13.8729C45.1871 20.5969 42.3808 31.0799 38.1025 34.6752C44.6455 35.147 50.8533 30.0238 49.8057 21.1618C48.5577 18.4502 47.3093 15.7374 46.0613 13.0254Z" fill="url(#paint0_linear_463_103)"/>
<path fill-rule="evenodd" clip-rule="evenodd" d="M26.0215 47.8712C26.1884 45.7814 28.3029 41.8513 28.4699 39.7611C19.4995 44.116 11.0871 37.4214 9.48724 32.0146C6.52174 37.9682 8.75895 45.7741 17.1962 48.2275C20.1381 48.1086 23.0792 47.9901 26.0215 47.8712Z" fill="url(#paint1_linear_463_103)"/>
<path fill-rule="evenodd" clip-rule="evenodd" d="M5.01758 10.9667C6.6162 12.2912 8.60192 16.2903 10.2001 17.6139C11.7545 7.62822 21.9445 4.36944 27.2301 6.09039C24.0877 0.233386 16.4959 -2.31443 9.72847 3.36807C8.15774 5.90037 6.58702 8.43354 5.01758 10.9667Z" fill="url(#paint2_linear_463_103)"/>
<path fill-rule="evenodd" clip-rule="evenodd" d="M26.7182 33.7109C28.7628 43.978 22.7099 49.265 14.752 47.4449C35.6216 54.9298 49.2238 39.4081 43.7756 27.1257C38.3266 14.843 23.5918 22.4955 26.7182 33.7109Z" fill="url(#paint3_linear_463_103)"/>
<path fill-rule="evenodd" clip-rule="evenodd" d="M16.0947 19.5732C6.6197 15.4708 5.76482 7.40205 11.7469 1.76221C-6.13966 15.0132 -1.27041 35.2083 11.7671 37.6001C24.8045 39.9907 26.9537 23.3055 16.0947 19.5732Z" fill="url(#paint4_linear_463_103)"/>
<path fill-rule="evenodd" clip-rule="evenodd" d="M20.3768 4.42364C11.3585 14.2939 24.0045 25.1418 32.9572 17.8621C41.4692 11.9654 48.6066 15.59 50.0438 23.7574C48.7375 1.28982 29.3961 -5.44791 20.3768 4.42364Z" fill="url(#paint5_linear_463_103)"/>
<path d="M65.2606 31.7524V16.6838H60.7935V13.2653H73.7317V16.6838H69.2646V31.7524H65.2606Z" fill="white"/>
<path d="M83.5375 27.076C83.5375 26.2555 82.9927 25.4898 81.7397 25.4898H79.942V28.6621H81.7397C82.9654 28.6621 83.5375 27.8143 83.5375 27.076ZM82.0666 17.4495C85.2535 17.4495 87.2147 18.6802 87.2147 21.3329C87.2147 22.7276 86.5065 23.6848 85.3352 24.2318C86.8333 24.7787 87.7594 25.8727 87.7594 27.5409C87.7594 30.5491 84.9539 31.7524 81.767 31.7524H76.0469V22.4268V17.4495H82.0666ZM79.942 22.837H81.3311C82.6386 22.837 83.374 22.2354 83.374 21.3876C83.374 20.5398 82.802 20.0476 81.4673 20.0476H79.942V22.837Z" fill="white"/>
<path d="M90.4287 25.9273V23.1378C90.4287 19.1997 93.0164 17.0939 96.2305 17.0939C99.4446 17.0939 102.06 19.3638 102.06 22.6182V25.7359H94.2966V25.9273C94.2966 27.869 95.141 28.7988 96.8025 28.7988C98.1644 28.7988 99.4446 28.5253 100.698 28.1151L101.46 31.2601C99.9077 31.8344 98.7092 32.1079 96.8025 32.1079C92.9891 32.1079 90.4287 29.9474 90.4287 25.9273ZM94.2966 23.0011H98.1644V22.6182C98.1644 21.3875 97.4562 20.403 96.2305 20.403C95.0865 20.403 94.2966 21.3602 94.2966 22.6182V23.0011Z" fill="white"/>
<path d="M103.694 31.7524L105.546 22.5909C106.145 19.6647 107.507 17.4495 110.858 17.4495H116.087V31.7524H112.192V20.6766H111.402C110.476 20.6766 109.822 21.4423 109.523 22.8644L107.698 31.7524H103.694Z" fill="white"/>
<path d="M131.613 17.4495V31.7524H127.773V26.4743C127.773 25.8453 127.854 24.5053 127.909 23.6848L122.897 31.7524H119.628V17.4495H123.469V22.837C123.469 23.4387 123.387 24.7514 123.333 25.5445L128.372 17.4495H131.613Z" fill="white"/>
<path d="M135.372 26.6107L134.065 17.4491H137.933L139.213 26.3372C139.431 27.7593 139.894 28.443 140.82 28.443H141.474L142.836 17.4491H146.731L144.034 37.5225H140.221L141.011 31.7521H140.684C137.334 31.7521 135.808 29.5642 135.372 26.6107Z" fill="white"/>
<path d="M149.809 17.4495H154.685L157.082 25.0796L159.506 17.4495H164.381L165.798 31.7524L161.848 31.7524L161.113 22.8097L159.015 29.3458H155.175L153.05 22.7823L152.315 31.7524H148.365L149.809 17.4495Z" fill="white"/>
<defs>
<linearGradient id="paint0_linear_463_103" x1="37.7623" y1="23.8652" x2="49.9217" y2="23.8652" gradientUnits="userSpaceOnUse">
<stop stop-color="#5C5C5C"/>
<stop offset="1" stop-color="#A1A2A0"/>
</linearGradient>
<linearGradient id="paint1_linear_463_103" x1="8.24184" y1="40.1211" x2="28.4695" y2="40.1211" gradientUnits="userSpaceOnUse">
<stop stop-color="#5C5C5C"/>
<stop offset="1" stop-color="#A1A2A0"/>
</linearGradient>
<linearGradient id="paint2_linear_463_103" x1="5.01773" y1="8.8985" x2="27.2296" y2="8.8985" gradientUnits="userSpaceOnUse">
<stop stop-color="#5C5C5C"/>
<stop offset="1" stop-color="#A1A2A0"/>
</linearGradient>
<linearGradient id="paint3_linear_463_103" x1="20.9094" y1="48.8852" x2="46.7721" y2="20.5501" gradientUnits="userSpaceOnUse">
<stop stop-color="#A6A9A7"/>
<stop offset="1" stop-color="#E8EAE6"/>
</linearGradient>
<linearGradient id="paint4_linear_463_103" x1="4.7671" y1="37.1784" x2="34.912" y2="17.3133" gradientUnits="userSpaceOnUse">
<stop stop-color="#A6A9A7"/>
<stop offset="1" stop-color="#E8EAE6"/>
</linearGradient>
<linearGradient id="paint5_linear_463_103" x1="11.49" y1="40.2881" x2="37.3526" y2="11.9529" gradientUnits="userSpaceOnUse">
<stop stop-color="#747E77"/>
<stop offset="1" stop-color="#FDFFFC"/>
</linearGradient>
</defs>
</svg>
