<svg width="72" height="60" viewBox="0 0 72 60" fill="none" xmlns="http://www.w3.org/2000/svg">
<path fill-rule="evenodd" clip-rule="evenodd" d="M52.6906 10.4104C51.1651 10.9183 47.753 10.5606 46.2272 11.0685C52.0097 16.2893 49.8242 24.4288 46.4923 27.2203C51.5879 27.5867 56.4226 23.6087 55.6067 16.7279C54.6348 14.6225 53.6625 12.5161 52.6906 10.4104Z" fill="url(#paint0_linear_77_69)"/>
<path fill-rule="evenodd" clip-rule="evenodd" d="M37.0837 37.4663C37.2138 35.8437 38.8605 32.7922 38.9905 31.1692C32.0045 34.5506 25.4529 29.3526 24.2069 25.1545C21.8974 29.7771 23.6397 35.838 30.2107 37.743C32.5018 37.6506 34.7923 37.5586 37.0837 37.4663Z" fill="url(#paint1_linear_77_69)"/>
<path fill-rule="evenodd" clip-rule="evenodd" d="M20.7259 8.81187C21.9709 9.8403 23.5174 12.9453 24.762 13.9731C25.9726 6.2197 33.9086 3.68944 38.0249 5.02566C35.5777 0.478005 29.6652 -1.50024 24.3947 2.91192C23.1714 4.87812 21.9482 6.84499 20.7259 8.81187Z" fill="url(#paint2_linear_77_69)"/>
<path fill-rule="evenodd" clip-rule="evenodd" d="M37.6262 26.4719C39.2185 34.4438 34.5045 38.5488 28.3069 37.1357C44.5601 42.9473 55.1535 30.8955 50.9105 21.3589C46.6668 11.8219 35.1913 17.7637 37.6262 26.4719Z" fill="url(#paint3_linear_77_69)"/>
<path fill-rule="evenodd" clip-rule="evenodd" d="M29.3527 15.4946C21.9736 12.3093 21.3078 6.04432 25.9666 1.66528C12.0366 11.954 15.8288 27.6344 25.9823 29.4915C36.1359 31.3477 37.8097 18.3926 29.3527 15.4946Z" fill="url(#paint4_linear_77_69)"/>
<path fill-rule="evenodd" clip-rule="evenodd" d="M32.6876 3.73185C25.6642 11.3956 35.5129 19.8184 42.4852 14.1661C49.1143 9.58763 54.6729 12.4019 55.7922 18.7435C54.7749 1.2986 39.7118 -3.9329 32.6876 3.73185Z" fill="url(#paint5_linear_77_69)"/>
<path d="M3.15696 56.0713L3.15696 45.8237H0.109863L0.109863 43.4989H8.9353V45.8237H5.8882L5.8882 56.0713H3.15696Z" fill="#005300"/>
<path d="M15.6241 52.891C15.6241 52.3331 15.2525 51.8123 14.3978 51.8123H13.1715V53.9697H14.3978C15.2339 53.9697 15.6241 53.3932 15.6241 52.891ZM14.6207 46.3444C16.7946 46.3444 18.1323 47.1814 18.1323 48.9854C18.1323 49.9339 17.6493 50.5848 16.8503 50.9568C17.8722 51.3288 18.5039 52.0727 18.5039 53.2072C18.5039 55.253 16.5902 56.0713 14.4164 56.0713H10.5146V49.7293L10.5146 46.3444H14.6207ZM13.1715 50.0083H14.1191C15.0109 50.0083 15.5126 49.5991 15.5126 49.0226C15.5126 48.446 15.1224 48.1113 14.212 48.1113H13.1715V50.0083Z" fill="#005300"/>
<path d="M20.3248 52.1098V50.2128C20.3248 47.5346 22.0899 46.1026 24.2823 46.1026C26.4747 46.1026 28.2584 47.6462 28.2584 49.8594V51.9796H22.9631V52.1098C22.9631 53.4303 23.5391 54.0626 24.6725 54.0626C25.6014 54.0626 26.4747 53.8766 27.3294 53.5977L27.8496 55.7364C26.7906 56.127 25.973 56.313 24.6725 56.313C22.0713 56.313 20.3248 54.8437 20.3248 52.1098ZM22.9631 50.1198H25.6014V49.8594C25.6014 49.0225 25.1184 48.353 24.2823 48.353C23.5019 48.353 22.9631 49.0039 22.9631 49.8594V50.1198Z" fill="#005300"/>
<path d="M29.3731 56.0713L30.6366 49.8409C31.0453 47.8509 31.9743 46.3444 34.2596 46.3444H37.827V56.0713H35.1701V48.539H34.6312C33.9995 48.539 33.5536 49.0598 33.3492 50.0269L32.1044 56.0713H29.3731Z" fill="#005300"/>
<path d="M48.4175 46.3444V56.0713H45.7977V52.4818C45.7977 52.0541 45.8535 51.1428 45.8906 50.5848L42.472 56.0713H40.2424V46.3444H42.8621V50.0083C42.8621 50.4174 42.8064 51.3102 42.7692 51.8495L46.2065 46.3444H48.4175Z" fill="#005300"/>
<path d="M50.9815 52.5749L50.0897 46.3445H52.728L53.6013 52.3889C53.7499 53.3561 54.0658 53.821 54.6975 53.821H55.1434L56.0724 46.3445H58.7293L56.8899 59.9956H54.2887L54.8276 56.0714H54.6046C52.3193 56.0714 51.2788 54.5835 50.9815 52.5749Z" fill="#005300"/>
<path d="M60.8289 46.3444H64.1547L65.7897 51.5333L67.4433 46.3444H70.7691L71.7353 56.0713H69.0412L68.5395 49.9897L67.1089 54.4346H64.4891L63.0399 49.9711L62.5382 56.0713H59.8441L60.8289 46.3444Z" fill="#005300"/>
<defs>
<linearGradient id="paint0_linear_77_69" x1="46.2273" y1="18.827" x2="55.697" y2="18.827" gradientUnits="userSpaceOnUse">
<stop stop-color="#08321A"/>
<stop offset="1" stop-color="#3F7123"/>
</linearGradient>
<linearGradient id="paint1_linear_77_69" x1="23.2367" y1="31.4489" x2="38.9905" y2="31.4489" gradientUnits="userSpaceOnUse">
<stop stop-color="#08321A"/>
<stop offset="1" stop-color="#3F7123"/>
</linearGradient>
<linearGradient id="paint2_linear_77_69" x1="20.726" y1="7.20595" x2="38.025" y2="7.20595" gradientUnits="userSpaceOnUse">
<stop stop-color="#08321A"/>
<stop offset="1" stop-color="#3F7123"/>
</linearGradient>
<linearGradient id="paint3_linear_77_69" x1="33.1023" y1="38.2539" x2="53.1777" y2="16.1928" gradientUnits="userSpaceOnUse">
<stop stop-color="#447752"/>
<stop offset="1" stop-color="#79BE44"/>
</linearGradient>
<linearGradient id="paint4_linear_77_69" x1="19.1793" y1="25.5841" x2="39.2547" y2="3.52288" gradientUnits="userSpaceOnUse">
<stop stop-color="#447752"/>
<stop offset="1" stop-color="#79BE44"/>
</linearGradient>
<linearGradient id="paint5_linear_77_69" x1="25.7666" y1="31.5787" x2="45.842" y2="9.5175" gradientUnits="userSpaceOnUse">
<stop stop-color="#447752"/>
<stop offset="1" stop-color="#79BE44"/>
</linearGradient>
</defs>
</svg>
