<svg width="166" height="49" viewBox="0 0 166 49" fill="none" xmlns="http://www.w3.org/2000/svg">
<path fill-rule="evenodd" clip-rule="evenodd" d="M46.0613 13.1328C44.1026 13.7738 39.7213 13.3224 37.7622 13.9634C45.1871 20.5529 42.3808 30.8262 38.1025 34.3496C44.6455 34.812 50.8533 29.7912 49.8057 21.1065C48.5577 18.4491 47.3093 15.7906 46.0613 13.1328Z" fill="url(#paint0_linear_72_23)"/>
<path fill-rule="evenodd" clip-rule="evenodd" d="M26.0217 47.2813C26.1887 45.2333 28.3032 41.3819 28.4701 39.3334C19.4998 43.6013 11.0874 37.0405 9.48748 31.7419C6.52199 37.5764 8.7592 45.2262 17.1965 47.6306C20.1384 47.514 23.0794 47.3979 26.0217 47.2813Z" fill="url(#paint1_linear_72_23)"/>
<path fill-rule="evenodd" clip-rule="evenodd" d="M5.01758 11.1153C6.6162 12.4133 8.60192 16.3324 10.2001 17.6296C11.7545 7.84357 21.9445 4.64997 27.2301 6.3365C24.0877 0.596638 16.4959 -1.90022 9.72847 3.66862C8.15774 6.15028 6.58702 8.63278 5.01758 11.1153Z" fill="url(#paint2_linear_72_23)"/>
<path fill-rule="evenodd" clip-rule="evenodd" d="M26.7182 33.4046C28.7628 43.4663 22.7099 48.6476 14.752 46.8639C35.6216 54.1991 49.2238 38.9878 43.7756 26.9511C38.3266 14.914 23.5918 22.4134 26.7182 33.4046Z" fill="url(#paint3_linear_72_23)"/>
<path fill-rule="evenodd" clip-rule="evenodd" d="M16.0947 19.5495C6.6197 15.5291 5.76482 7.62177 11.7469 2.09473C-6.13966 15.0807 -1.27041 34.8719 11.7671 37.2159C24.8045 39.5586 26.9538 23.2072 16.0947 19.5495Z" fill="url(#paint4_linear_72_23)"/>
<path fill-rule="evenodd" clip-rule="evenodd" d="M20.377 4.70333C11.3586 14.3762 24.0047 25.0072 32.9574 17.873C41.4693 12.0943 48.6067 15.6464 50.044 23.6504C48.7376 1.63219 29.3962 -4.97078 20.377 4.70333Z" fill="url(#paint5_linear_72_23)"/>
<path d="M65.2606 33.3362V18.5689H60.7935V15.2188L73.7317 15.2188V18.5689H69.2646V33.3362H65.2606Z" fill="#005300"/>
<path d="M83.5376 28.7532C83.5376 27.9492 82.9928 27.1988 81.7398 27.1988H79.9421V30.3077H81.7398C82.9656 30.3077 83.5376 29.4769 83.5376 28.7532ZM82.0667 19.3193C85.2536 19.3193 87.2148 20.5254 87.2148 23.125C87.2148 24.4919 86.5066 25.4299 85.3353 25.9659C86.8334 26.502 87.7595 27.574 87.7595 29.2088C87.7595 32.1569 84.954 33.3362 81.7671 33.3362H76.047V24.1971V19.3193H82.0667ZM79.9421 24.5991H81.3313C82.6387 24.5991 83.3741 24.0095 83.3741 23.1786C83.3741 22.3478 82.8021 21.8654 81.4675 21.8654H79.9421V24.5991Z" fill="#005300"/>
<path d="M90.429 27.6276V24.8939C90.429 21.0345 93.0166 18.9709 96.2307 18.9709C99.4449 18.9709 102.06 21.1953 102.06 24.3847V27.44H94.2968V27.6276C94.2968 29.5304 95.1412 30.4417 96.8028 30.4417C98.1647 30.4417 99.4449 30.1737 100.698 29.7716L101.461 32.8537C99.9079 33.4166 98.7094 33.6846 96.8028 33.6846C92.9894 33.6846 90.429 31.5673 90.429 27.6276ZM94.2968 24.7599H98.1647V24.3847C98.1647 23.1786 97.4565 22.2138 96.2307 22.2138C95.0867 22.2138 94.2968 23.1518 94.2968 24.3847V24.7599Z" fill="#005300"/>
<path d="M103.694 33.3362L105.546 24.3579C106.145 21.4902 107.507 19.3193 110.858 19.3193H116.087V33.3362H112.192V22.4818H111.402C110.476 22.4818 109.823 23.2322 109.523 24.6259L107.698 33.3362H103.694Z" fill="#005300"/>
<path d="M131.613 19.3193V33.3362H127.773V28.1636C127.773 27.5472 127.855 26.2339 127.909 25.4299L122.897 33.3362H119.629V19.3193H123.469V24.5991C123.469 25.1887 123.387 26.4752 123.333 27.2524L128.372 19.3193H131.613Z" fill="#005300"/>
<path d="M135.372 28.2977L134.065 19.3193H137.933L139.213 28.0296C139.431 29.4233 139.894 30.0933 140.82 30.0933H141.474L142.836 19.3193H146.731L144.034 38.9912H140.221L141.011 33.3362H140.684C137.334 33.3362 135.808 31.1921 135.372 28.2977Z" fill="#005300"/>
<path d="M149.809 19.3193H154.684L157.081 26.7968L159.506 19.3193H164.381L165.798 33.3362H161.848L161.113 24.5723L159.015 30.9777H155.175L153.05 24.5455L152.315 33.3362H148.365L149.809 19.3193Z" fill="#005300"/>
<defs>
<linearGradient id="paint0_linear_72_23" x1="37.7623" y1="23.7558" x2="49.9217" y2="23.7558" gradientUnits="userSpaceOnUse">
<stop stop-color="#08321A"/>
<stop offset="1" stop-color="#3F7123"/>
</linearGradient>
<linearGradient id="paint1_linear_72_23" x1="8.24167" y1="39.6864" x2="28.4701" y2="39.6864" gradientUnits="userSpaceOnUse">
<stop stop-color="#08321A"/>
<stop offset="1" stop-color="#3F7123"/>
</linearGradient>
<linearGradient id="paint2_linear_72_23" x1="5.01775" y1="9.08837" x2="27.2301" y2="9.08837" gradientUnits="userSpaceOnUse">
<stop stop-color="#08321A"/>
<stop offset="1" stop-color="#3F7123"/>
</linearGradient>
<linearGradient id="paint3_linear_72_23" x1="20.9094" y1="48.2754" x2="46.2031" y2="19.998" gradientUnits="userSpaceOnUse">
<stop stop-color="#447752"/>
<stop offset="1" stop-color="#79BE44"/>
</linearGradient>
<linearGradient id="paint4_linear_72_23" x1="3.03171" y1="32.284" x2="28.3254" y2="4.00666" gradientUnits="userSpaceOnUse">
<stop stop-color="#447752"/>
<stop offset="1" stop-color="#79BE44"/>
</linearGradient>
<linearGradient id="paint5_linear_72_23" x1="11.4901" y1="39.8504" x2="36.7838" y2="11.5731" gradientUnits="userSpaceOnUse">
<stop stop-color="#447752"/>
<stop offset="1" stop-color="#79BE44"/>
</linearGradient>
</defs>
</svg>
